<svg width="50" height="43" viewBox="0 0 50 43" fill="none" xmlns="http://www.w3.org/2000/svg">
<path d="M0 12.2636C0.102462 11.9757 0.131479 11.4347 0.18186 11.1164C0.272004 10.579 0.395715 10.0476 0.552288 9.52512C1.60192 6.04292 4.05735 3.1325 7.34919 1.46876C10.5579 -0.139535 14.285 -0.438699 17.7178 0.636476C19.8519 1.30676 21.6244 2.41075 23.2098 3.9497L24.3382 5.06126C24.5122 5.23277 24.8103 5.54158 24.9941 5.68226C25.8179 4.93849 26.6326 4.01369 27.47 3.30168C30.0908 1.04979 33.4944 -0.128309 36.9763 0.0110997C40.6179 0.152758 44.0474 1.72752 46.4897 4.37942C48.0725 6.08265 49.1721 8.16289 49.6792 10.4128C49.7622 10.7755 49.8264 11.1422 49.8713 11.5114C49.895 11.6983 49.9487 12.237 50 12.3915V14.2363C49.947 14.4075 49.9182 14.6704 49.9001 14.8522C49.832 15.5348 49.6956 16.1652 49.5146 16.8283C48.9922 18.6949 48.0559 20.4254 46.7727 21.8964C46.2974 22.4419 45.7742 22.951 45.2532 23.4551C44.8862 23.8106 44.5081 24.2001 44.135 24.5457C44.4036 24.827 44.7422 25.1393 44.9868 25.4242C45.7029 26.2502 46.0767 27.3097 46.0344 28.3931C45.9995 29.5696 45.4812 30.6824 44.5974 31.4788C43.8625 32.1428 42.7737 32.633 41.7705 32.6673C41.5774 34.0403 41.1653 35.0624 39.9922 35.9399C39.272 36.4845 38.3987 36.7992 37.4905 36.8414C37.4451 37.1707 37.4082 37.4843 37.3201 37.806C37.0642 38.7374 36.4783 39.5611 35.6973 40.1428C34.7466 40.8592 33.5403 41.1668 32.3542 40.9952C30.906 40.7938 29.9824 40.0066 29.0369 38.9816C28.5327 39.8215 28.1008 40.3072 27.3772 40.9691C26.8904 41.4143 26.5083 41.8784 25.9397 42.2528C25.5173 42.5326 25.0491 42.7397 24.5557 42.8646C23.3989 43.1533 22.1725 42.9762 21.1498 42.3727C20.3324 41.8935 19.6458 41.1376 19.3 40.2639C19.1314 40.3321 18.9612 40.3984 18.7934 40.4683C17.7596 40.8999 16.4829 40.8678 15.4513 40.4494C14.3333 40.0006 13.4458 39.1307 12.9876 38.0346C12.7335 37.4252 12.7587 37.2 12.664 36.6013C11.8779 36.5132 11.2212 36.361 10.5395 35.9464C9.2197 35.1438 8.50169 33.9072 8.38774 32.4063C7.67712 32.3353 7.03477 32.1921 6.41367 31.8405C3.55327 30.2214 3.34451 26.5624 5.80632 24.5086C4.95981 23.6777 3.94187 22.732 3.17864 21.8569C1.97245 20.458 1.07751 18.8276 0.551116 17.07C0.406409 16.5839 0.288733 16.0904 0.19861 15.5917C0.155764 15.3526 0.0684812 14.47 0 14.329V12.2636ZM7.8833 22.4565C9.20056 21.1675 10.0688 20.1488 12.117 20.156C13.3133 20.1589 14.4589 20.6298 15.2995 21.4643C15.767 21.926 15.9795 22.2928 16.2514 22.8699L16.2764 22.862C16.5882 22.7626 16.8236 22.6348 17.1699 22.5364C18.2433 22.2351 19.3929 22.3382 20.3928 22.8256C21.4731 23.3534 22.2927 24.2836 22.6683 25.4084C23.0199 26.4714 22.9483 27.7298 22.4209 28.7268C22.3981 28.7708 22.374 28.8141 22.3485 28.8567C23.9726 29.6086 25.0586 30.9021 25.1484 32.7127C27.2366 33.0084 27.6709 33.5862 29.0815 34.9683L31.0903 36.9386C31.4072 37.2505 31.9487 37.852 32.3335 38.0222C32.8328 38.2431 33.4773 38.1859 33.9216 37.8582C34.2544 37.6153 34.4719 37.2502 34.5249 36.8466C34.644 35.9157 34.061 35.5265 33.4534 34.9355C33.3521 34.8367 33.2495 34.7349 33.1489 34.6351L30.3352 31.88C30.2014 31.7488 30.0676 31.6157 29.9316 31.4845C29.427 30.9979 28.918 30.5862 29.0164 29.8178C29.0657 29.4317 29.2327 29.0908 29.5503 28.845C29.8618 28.6023 30.2617 28.496 30.6558 28.5518C31.3547 28.6475 31.9202 29.3585 32.4026 29.8341L35.0359 32.4142C35.27 32.6438 35.5051 32.8765 35.739 33.1063C36.1211 33.4811 36.3457 33.7664 36.8806 33.9204C37.7869 34.0913 38.6016 33.6424 38.7932 32.7362C38.9087 32.1914 38.6968 31.6643 38.2981 31.2861C37.9497 30.9558 37.6069 30.6171 37.2644 30.2815L34.5159 27.5869C33.8967 26.9794 33.1523 26.497 33.3115 25.5309C33.3694 25.1573 33.5786 24.8224 33.8921 24.6024C34.3999 24.2522 35.1829 24.2606 35.6497 24.6582C36.0989 25.041 36.5413 25.5058 36.9648 25.9211L39.6262 28.53C39.9329 28.8304 40.5146 29.4566 40.8716 29.6306C41.3096 29.8441 41.9602 29.8063 42.3826 29.5413C42.7346 29.3245 42.9805 28.9755 43.063 28.576C43.2234 27.7892 42.8723 27.3502 42.3223 26.8381C42.0198 26.5566 41.7126 26.2426 41.4172 25.952L38.2817 22.8672L32.2812 16.9585L30.3345 15.0398C30.0051 14.7153 29.5898 14.2831 29.2524 13.9843C28.3201 14.8628 27.4211 15.7876 26.4983 16.6732C25.8037 17.3395 25.0532 18.1907 24.2312 18.6672C23.4307 19.1211 22.5199 19.3543 21.5953 19.3419C18.2102 19.2804 15.6764 16.1938 17.5261 13.1221C17.7602 12.7335 18.2562 12.2928 18.5862 11.9693L19.8077 10.7725L21.7687 8.85208C22.1054 8.52218 22.4792 8.13967 22.824 7.82322C22.854 7.79572 22.8842 7.76838 22.9145 7.74122C22.5765 7.37764 22.1973 7.02301 21.8449 6.67018C21.3019 6.1265 20.7584 5.59415 20.152 5.11689C18.5459 3.85283 16.3593 3.00518 14.292 2.91156C13.8715 2.89514 13.4505 2.89507 13.0299 2.9113C10.3588 2.9693 7.69666 4.221 5.86086 6.10632C3.90305 8.1188 2.84905 10.8164 2.93442 13.5962C2.99734 15.9034 3.84316 18.1241 5.33806 19.9069C5.71848 20.3627 6.17009 20.8095 6.6022 21.2201C7.02239 21.6194 7.44629 22.0802 7.8833 22.4565ZM24.8865 35.6321C24.6951 35.645 24.3579 35.6704 24.2001 35.7838C23.51 36.2796 22.9015 36.9905 22.2894 37.5772C21.9922 37.862 21.8673 38.3437 21.9009 38.7314C21.9335 39.1345 22.1308 39.5079 22.448 39.7665C22.7747 40.0322 23.0904 40.1028 23.5018 40.1116C24.533 40.0224 24.9055 39.2221 25.636 38.6007C26.1428 38.1696 26.5579 37.6792 26.4878 36.9778C26.449 36.5738 26.2463 36.202 25.925 35.9459C25.5879 35.679 25.2981 35.635 24.8865 35.6321ZM11.9907 23.0413C11.1937 23.1471 11.0114 23.4547 10.4731 23.9815L9.33647 25.0943L8.0959 26.3108C7.52781 26.8685 6.90349 27.3401 7.05112 28.2188C7.19172 29.0557 7.84429 29.5109 8.67781 29.5047C9.42253 29.4353 9.61958 29.1306 10.1193 28.6413L11.187 27.5957L12.5543 26.2553C12.8086 26.0061 13.0624 25.7631 13.3031 25.5032C13.8509 24.9119 13.7321 23.8678 13.0996 23.3764C12.7695 23.1198 12.4076 23.0247 11.9907 23.0413ZM20.5461 31.446C20.2889 31.452 20.0685 31.4893 19.8478 31.6344C19.6165 31.7864 19.4167 31.9903 19.2199 32.1825C18.1906 33.1879 17.1637 34.1949 16.1378 35.2039C15.7701 35.5653 15.5892 35.903 15.6031 36.4196C15.6212 37.3079 16.3493 37.9219 17.2352 37.8982C18.0279 37.8063 18.2872 37.4233 18.8216 36.9005L19.9683 35.7781L21.1677 34.6026C21.7362 34.0451 22.3295 33.6022 22.1976 32.7273C22.0677 31.8661 21.4039 31.4017 20.5461 31.446ZM18.2329 25.2657C17.7016 25.3327 17.4956 25.4855 17.1276 25.8522C16.9047 26.0741 16.6657 26.3034 16.4398 26.5246L14.4577 28.4659L12.5909 30.2949C11.952 30.9208 11.1985 31.4233 11.3323 32.4028C11.3894 32.8082 11.6115 33.174 11.9481 33.4162C12.2808 33.6604 12.6694 33.7269 13.0743 33.6915C13.8324 33.5694 14.2617 32.977 14.7863 32.4628L16.6964 30.5895L18.6278 28.6978C18.9346 28.3974 19.4604 27.9385 19.6984 27.5986C20.4279 26.5564 19.5153 25.0816 18.2329 25.2657ZM35.8816 2.91132C34.1719 2.94988 32.3484 3.52784 30.8894 4.39699C29.5762 5.17922 28.7224 6.10206 27.6475 7.15536L25.0859 9.66551L21.8674 12.8181C21.3119 13.3617 20.7373 13.9101 20.1989 14.4545C19.1112 15.5543 20.6726 16.5402 21.7595 16.4671C22.7838 16.3982 23.1802 15.8345 23.8657 15.1795C24.0586 14.9938 24.2536 14.8001 24.4473 14.6105L27.4128 11.7081C27.698 11.4298 28.2959 10.7749 28.6289 10.6395C29.218 10.4 29.8484 10.5011 30.3108 10.9441C30.698 11.3151 31.0691 11.6824 31.4456 12.0541L33.5503 14.1296L39.72 20.2096L41.1873 21.656C41.3682 21.8341 41.863 22.3476 42.0579 22.4596C42.2422 22.3813 44.2236 20.3881 44.4963 20.0847C45.2825 19.1952 45.9072 18.1801 46.3433 17.0834C47.3601 14.5153 47.3025 11.6574 46.1824 9.1308C45.0518 6.60632 42.9524 4.62013 40.3389 3.60228C38.8381 3.02607 37.4849 2.84724 35.8816 2.91132Z" fill="#262425"/>
</svg>
