<svg width="43" height="43" viewBox="0 0 43 43" fill="none" xmlns="http://www.w3.org/2000/svg">
<path d="M3.55469 10.667L15.8445 17.6305C20.3753 20.1977 22.2896 20.1977 26.8205 17.6305L39.1102 10.667" stroke="#464646" stroke-width="2" stroke-linejoin="round"/>
<path d="M3.58272 23.9571C3.69894 29.407 3.75705 32.1318 5.76795 34.1505C7.77883 36.169 10.5775 36.2392 16.1748 36.3798C19.6246 36.4666 23.0404 36.4666 26.4902 36.3798C32.0875 36.2392 34.8861 36.169 36.8971 34.1505C38.9079 32.1318 38.9661 29.407 39.0822 23.9571C39.1197 22.2047 39.1197 20.4628 39.0822 18.7105C38.9661 13.2606 38.9079 10.5357 36.8971 8.51716C34.8861 6.49862 32.0875 6.42831 26.4902 6.28767C23.0404 6.20099 19.6246 6.20099 16.1748 6.28765C10.5775 6.42828 7.77883 6.49859 5.76793 8.51715C3.75703 10.5357 3.69894 13.2606 3.58271 18.7105C3.54534 20.4628 3.54535 22.2047 3.58272 23.9571Z" stroke="#464646" stroke-width="2" stroke-linejoin="round"/>
</svg>
