<svg width="50" height="38" viewBox="0 0 50 38" fill="none" xmlns="http://www.w3.org/2000/svg">
<path d="M0 12.6269C0.0926497 12.368 0.12545 11.8151 0.170815 11.5217C0.261035 10.9428 0.39011 10.3705 0.557173 9.80878C1.62392 6.22545 4.11589 3.23106 7.45574 1.51937C8.88948 0.790476 10.4402 0.316206 12.038 0.117925C13.4323 -0.0492716 15.2086 0.0103219 16.6468 0.0103219L23.7524 0.0105891L32.4412 0.0104916L35.1895 0.0103704C35.8132 0.0101033 36.5132 -0.00269441 37.1313 0.0409443C38.2764 0.114064 39.4077 0.328421 40.4995 0.679085C43.9707 1.8049 46.8516 4.25394 48.5105 7.48925C49.1133 8.66395 49.5393 9.92034 49.7749 11.2182C49.8254 11.518 49.8687 11.8189 49.9045 12.1207C49.9253 12.29 49.9507 12.5981 50 12.7505V18.8065C49.9402 19.002 49.9109 19.3201 49.8884 19.5287C49.8137 20.2215 49.676 20.8811 49.4871 21.5526C48.4963 25.0206 46.1746 27.9621 43.0227 29.7424C41.6489 30.5197 40.1506 31.0554 38.5935 31.3265C37.1929 31.5584 36.1821 31.5217 34.782 31.5217L31.2654 31.5219L18.9005 31.5222L15.6568 31.5205C15.1816 31.5202 14.4781 31.5008 14.0265 31.5559C13.8663 31.5756 13.1045 31.9457 12.8974 32.0419L10.9095 32.9627L3.2447 36.5031L1.09905 37.4959C0.778489 37.6447 0.316465 37.8757 0 38V12.6269ZM3.05427 33.2131C3.90657 32.8734 4.95454 32.3522 5.80662 31.9574L10.7651 29.6666L12.3708 28.9206C12.5272 28.8478 13.1973 28.5267 13.3093 28.5083C13.7793 28.4311 14.6279 28.4648 15.1208 28.465L18.0313 28.4658H32.2144L35.1174 28.4663C35.8284 28.4663 36.5637 28.4825 37.2688 28.415C39.7449 28.1855 42.061 27.0988 43.8137 25.3443C45.5867 23.5888 46.6782 21.2662 46.8955 18.7873C46.946 18.2159 46.9392 17.58 46.9397 17.0052L46.9402 14.7785C46.9397 14.0117 46.9539 13.2229 46.8677 12.4615C46.593 10.0742 45.51 7.85101 43.7961 6.15758C42.3826 4.75096 40.5984 3.7702 38.6489 3.32827C37.147 2.98776 35.6719 3.06627 34.1404 3.06668L29.7053 3.06756L14.1896 3.06765C13.8341 3.06836 13.417 3.06491 13.0655 3.08747C12.2823 3.16091 11.7192 3.23201 10.9467 3.43223C8.81113 4.00092 6.90742 5.21873 5.50132 6.91561C4.3939 8.24512 3.63179 9.82491 3.28198 11.516C2.99797 12.8939 3.05415 14.0882 3.05427 15.486L3.0543 19.3728L3.05427 33.2131Z" fill="#262425"/>
<path d="M35.1742 13.4351C36.7782 13.3847 38.1202 14.6363 38.173 16.2318C38.2257 17.8273 36.9691 19.1636 35.3651 19.2182C33.7582 19.2726 32.4118 18.0201 32.359 16.4217C32.3063 14.8233 33.5673 13.4855 35.1742 13.4351Z" fill="#262425"/>
<path d="M24.8972 13.4352C26.4993 13.382 27.8425 14.628 27.9009 16.2212C27.9592 17.8144 26.7107 19.1543 25.1091 19.2172C23.5006 19.2803 22.1465 18.032 22.0879 16.4319C22.0293 14.8318 23.2885 13.4887 24.8972 13.4352Z" fill="#262425"/>
<path d="M14.6277 13.4354C16.2327 13.3799 17.5791 14.6288 17.6353 16.2253C17.6915 17.8217 16.4363 19.1612 14.8313 19.2176C13.2258 19.2741 11.8784 18.0249 11.8221 16.4278C11.7659 14.8308 13.0221 13.4909 14.6277 13.4354Z" fill="#262425"/>
</svg>
