<svg width="50" height="55" viewBox="0 0 50 55" fill="none" xmlns="http://www.w3.org/2000/svg">
<path d="M24.0709 0H26.5789C26.7793 0.0702746 27.1158 0.0871476 27.3362 0.107049C28.4166 0.204715 29.513 0.428049 30.557 0.723234C35.6181 2.16836 39.8745 5.63283 42.3418 10.3152C43.5241 12.5607 44.2544 15.0195 44.4912 17.5503C44.5808 18.5552 44.5925 19.5863 44.5816 20.5956C44.5744 21.2762 44.6042 22.0492 44.576 22.7208C47.638 22.7164 49.7416 25.7932 49.9526 28.6156C50.0341 29.7067 49.9859 30.9601 49.9854 32.0633V37.4234C49.9694 40.4642 48.1735 42.042 45.2658 42.3516C44.6807 43.096 44.2293 43.9511 43.5973 44.7173C41.3973 47.4037 38.254 49.131 34.8219 49.5392C34.2941 49.6026 33.7628 49.6343 33.2313 49.6343C32.7501 52.2368 30.9465 54.0488 28.4254 54.7699C28.1438 54.8504 27.6599 54.891 27.414 55H26.0162C25.7615 54.906 25.3194 54.8563 25.0378 54.7822C24.2844 54.5843 23.5859 54.2515 22.9439 53.8133C21.4752 52.8016 20.4604 51.2483 20.1191 49.4885C19.7947 47.738 20.1818 45.9293 21.1933 44.4692C22.209 42.9846 23.7765 41.9767 25.5401 41.6735C27.2935 41.3687 29.0952 41.7809 30.5458 42.8194C31.8831 43.7712 32.939 45.3159 33.2246 46.9506C33.8028 46.9721 34.5126 46.9055 35.0839 46.8067C37.845 46.326 40.3083 44.7705 41.9419 42.4757C41.5409 42.5039 41.0773 42.4934 40.6747 42.4985C40.2225 42.4964 39.8282 42.3927 39.5045 42.0546C39.0963 41.6289 39.1767 41.0561 39.1765 40.504V39.0054L39.1767 34.2184L39.1762 27.6901C39.1762 26.5594 39.1655 25.408 39.1895 24.2773C39.1991 23.8247 39.3755 23.2974 39.7288 22.9944C39.862 22.8803 40.0208 22.8011 40.1916 22.7638C40.4706 22.7004 41.5566 22.7163 41.87 22.7439L41.878 21.1633C41.8788 20.1092 41.9041 18.9046 41.8047 17.8697C41.4519 13.9784 39.7512 10.3365 37.0004 7.58288C33.9075 4.46131 29.7022 2.71944 25.3253 2.74686C20.9297 2.72964 16.7107 4.4883 13.6113 7.62967C10.8723 10.3957 9.18812 14.0461 8.8545 17.9396C8.73711 19.2962 8.79229 21.3052 8.79306 22.7247L8.81877 22.7241C9.15167 22.7181 10.2337 22.7007 10.5166 22.7804C10.7056 22.8328 10.8775 22.9343 11.0152 23.0749C11.2548 23.3154 11.4375 23.7417 11.4604 24.0776C11.502 24.6855 11.4855 25.3627 11.485 25.9769L11.4846 29.4862L11.4891 40.9562C11.4884 41.6356 11.229 42.3304 10.454 42.4504C9.76124 42.5264 9.02418 42.5055 8.32534 42.4969C5.64248 42.4649 3.38971 42.8957 1.37424 40.6874C0.761572 40.0079 0.335123 39.1794 0.136933 38.2833C-0.027922 37.5332 0.00205322 36.684 0.00225305 35.9136L0.00332943 33.506L0.00199448 30.206C0.00185326 29.5848 -0.0051729 28.9459 0.0104701 28.3266C0.0501571 26.7557 0.701302 25.1699 1.86018 24.097C3.102 22.9474 4.43756 22.666 6.0754 22.7372C6.09216 21.2611 6.04393 19.7405 6.12394 18.2716C6.27558 15.4812 7.03087 12.7579 8.33691 10.2926C10.8272 5.55503 15.1568 2.07183 20.2923 0.674432C21.2373 0.407714 22.2171 0.226186 23.1928 0.12224C23.4247 0.0975219 23.8639 0.0731344 24.0709 0ZM6.27792 39.7512L8.79082 39.7517L8.79061 30.3708C8.79064 28.8159 8.74718 27.0193 8.79775 25.4775C7.7046 25.4609 6.39825 25.4389 5.31163 25.471C4.96272 25.4962 4.66302 25.5257 4.34105 25.6676C3.49932 26.0386 2.92074 26.9317 2.77206 27.829C2.68485 28.3553 2.71432 29.024 2.7143 29.5676L2.71486 32.1369L2.7147 35.4742C2.71403 36 2.68992 36.8148 2.72535 37.3208C2.7735 38.0104 3.09406 38.6517 3.61523 39.101C4.4354 39.8208 5.2642 39.7587 6.27792 39.7512ZM41.8782 25.4727C41.9163 28.5643 41.8801 31.7316 41.8804 34.8305L41.8806 38.105C41.8809 38.5322 41.9062 39.3398 41.8716 39.7405C42.4913 39.7525 43.1113 39.7566 43.7311 39.7528C44.5619 39.7531 45.6847 39.8052 46.3998 39.3145C47.4773 38.6021 47.2812 37.5249 47.2815 36.3728L47.282 33.7622L47.2812 30.6032C47.2804 29.1347 47.3691 27.8942 46.4941 26.6217C46.1552 26.1288 45.6713 25.6153 45.0335 25.5152C44.2696 25.4403 43.1561 25.4508 42.3722 25.4731C42.1942 25.4789 42.0565 25.4833 41.8782 25.4727ZM27.0068 52.2513C29.1986 52.0822 30.8383 50.1529 30.6675 47.9443C30.4967 45.7354 28.5802 44.0854 26.3892 44.2605C24.2023 44.4356 22.5692 46.3625 22.7396 48.5668C22.91 50.7711 24.8196 52.42 27.0068 52.2513Z" fill="#262425"/>
</svg>
