<svg width="401" height="54" viewBox="0 0 401 54" fill="none" xmlns="http://www.w3.org/2000/svg">
<path fill-rule="evenodd" clip-rule="evenodd" d="M108.527 32.089C91.7085 36.8527 72.2902 41.5934 53.6099 42.7772C37.6435 43.7875 22.2214 42.2183 9.59814 35.5414C7.81872 34.6012 5.5904 35.2475 4.62807 36.9873C3.66428 38.7257 4.32734 40.9027 6.10676 41.8442C19.8771 49.1259 36.6679 51.0305 54.0837 49.927C73.1 48.7232 92.8688 43.9509 110.025 39.1184C112.016 43.058 116.138 46.7311 123.399 49.4411C134.553 53.6043 149.781 53.5527 165.824 51.2067C189.091 47.8059 214.121 39.696 230.213 33.9334C230.873 33.6984 231.856 33.3243 233.059 32.8314C233.426 33.6224 233.837 34.4021 234.291 35.1673C238.237 41.8371 245.22 47.2299 252.335 49.156C297.459 61.369 350.123 46.7354 393.002 34.8262C394.939 34.2859 396.068 32.3026 395.525 30.4008C394.968 28.4991 392.944 27.3941 390.992 27.9344C349.316 39.5111 298.148 54.1174 254.286 42.2497C248.888 40.788 243.636 36.6434 240.643 31.5817C240.306 31.017 240.013 30.4395 239.734 29.8533C245.646 26.9914 252.599 23.0016 256.34 18.7309C260.183 14.3527 261.137 9.67936 257.792 5.26535C254.917 1.49195 250.56 1.17093 246.027 3.12714C241.142 5.22235 236.11 10.1207 234.482 12.4194C231.431 16.713 230.463 21.3707 231.02 25.9123C229.582 26.5056 228.415 26.9469 227.695 27.2049C211.954 32.8399 187.489 40.7938 164.738 44.12C150.099 46.2611 136.194 46.5463 126.016 42.7485C121.676 41.1276 118.808 39.236 117.251 37.0404C120.323 36.1433 123.285 35.2605 126.115 34.4178C131.711 32.7511 143.363 29.9924 151.688 25.0753C158.309 21.1658 162.798 15.8475 162.536 9.18062C162.403 5.75547 160.374 3.46961 157.145 2.1884C152.32 0.275189 143.976 1.20096 140.869 1.84587C131.446 3.79777 118.868 11.8777 112.645 20.9823C110.161 24.6153 108.684 28.4159 108.527 32.089ZM116.268 29.8504C118.931 29.068 121.504 28.2998 123.976 27.5632C129.2 26.0068 140.12 23.5347 147.893 18.9429C152.009 16.5124 155.37 13.6003 155.207 9.45432C155.194 9.13187 154.867 9.04017 154.578 8.90833C154.131 8.70626 153.619 8.56721 153.073 8.45829C149.381 7.72167 144.421 8.4339 142.391 8.85523C134.484 10.4933 123.965 17.3221 118.745 24.9621C117.641 26.5758 116.763 28.2196 116.268 29.8504ZM238.267 22.6132C241.714 20.8806 245.323 18.7853 248.169 16.5052C249.68 15.2942 250.956 14.0489 251.763 12.7562C252.438 11.6871 252.702 10.5922 251.895 9.53453C251.572 9.10603 251.088 9.09748 250.589 9.17774C250.061 9.26372 249.518 9.44711 248.976 9.68358C245.396 11.2227 241.7 14.8185 240.511 16.5052C239.118 18.4614 238.428 20.5309 238.267 22.6132Z" fill="#7FEC8F"/>
</svg>
