<svg width="45" height="45" viewBox="0 0 45 45" fill="none" xmlns="http://www.w3.org/2000/svg">
<path d="M0 16.604L0.0101481 16.5745C0.149001 16.1608 0.2041 15.5439 0.304075 15.1009C1.2589 10.8694 4.33663 7.54991 8.16278 5.6531C16.1434 1.69671 27.2503 4.05277 31.5101 12.3039C32.1128 13.4713 32.7847 15.6274 32.7794 16.9777C37.8311 17.4896 43.1654 20.4667 44.6555 25.6491C44.7904 26.1184 44.8431 26.6268 45 27.0879V28.9229C44.9413 29.0984 44.8774 29.3413 44.848 29.5219C44.4242 32.105 43.0141 34.5113 40.9346 36.1081C40.631 36.3411 40.2701 36.6577 39.927 36.8247C39.941 36.853 39.9546 36.8813 39.9682 36.9099C40.442 37.9067 40.8777 39.124 41.2396 40.1749C41.277 40.2835 41.2672 40.547 41.212 40.6532C40.63 41.775 39.6384 41.0364 38.8377 40.6403L36.5104 39.488C36.1006 39.2815 35.7034 39.0377 35.2817 38.8619C34.6617 38.9395 34.0619 39.1163 33.4381 39.2033C28.1298 39.9443 22.2627 38.2921 18.8899 33.935C18.4006 33.3029 18.0095 32.5573 17.633 31.8433C15.0162 31.951 12.6014 31.7145 10.1246 30.7973C8.64723 31.6775 7.12125 32.4941 5.63517 33.3617C5.43064 33.4811 5.12186 33.6531 4.9021 33.7275C4.2983 33.9319 3.5427 33.2237 3.77217 32.6042C3.98114 32.0252 4.27507 31.5219 4.53298 30.9675C4.95154 30.1354 5.3332 29.2607 5.78047 28.4459C5.53269 28.3079 5.00681 27.8868 4.78247 27.7014C2.81054 26.0414 1.35649 23.8503 0.593025 21.3884C0.463703 20.9652 0.394735 20.7005 0.310129 20.2773C0.230581 19.8794 0.132748 19.1396 0.0103491 18.7837L0 18.7544V16.604ZM7.80502 27.5983C8.14105 28.4917 7.53446 29.0922 7.19287 29.8839C7.11332 30.0683 6.97867 30.3128 6.86959 30.4811C7.79695 29.933 8.76948 29.3344 9.74093 28.8788C10.0685 28.7252 11.1726 29.1613 11.5589 29.2743C12.3121 29.4945 13.0548 29.6665 13.833 29.7845C13.9699 29.8056 14.4878 29.9097 14.5955 29.906C15.4121 29.9805 16.2326 30.0026 17.052 29.9722C16.9086 29.2361 16.7954 28.4607 16.851 27.7125C16.986 25.8985 17.6018 24.1399 18.6451 22.6509C20.7974 19.5788 24.3511 17.7499 27.9878 17.1126C28.7977 16.9706 30.0579 16.8324 30.8756 16.8308L30.866 16.7961C30.7125 16.2289 30.6958 15.6392 30.5203 15.025C28.9288 9.45661 23.2615 6.09273 17.7167 5.73077C17.0937 5.69014 16.5162 5.62879 15.8862 5.67494C15.1745 5.72867 14.4613 5.77168 13.756 5.87241C7.66936 6.7417 1.68064 11.5166 1.9112 18.1168C2.01581 21.1115 3.60744 24.1737 5.85391 26.1269C6.46952 26.6622 7.20999 27.0561 7.79094 27.5853L7.80502 27.5983ZM33.7341 37.2177C34.1987 37.1583 34.929 36.9176 35.3089 36.9096C35.884 36.8977 37.8227 38.0576 38.5389 38.3382C38.3097 37.9092 37.6934 36.5822 37.8454 36.1081C38.0316 35.5264 39.0455 35.2029 39.4938 34.8281C42.5313 32.5531 44.1468 28.3658 42.3182 24.8203C40.9399 22.1473 38.3569 20.3674 35.5297 19.4532C33.7738 18.8843 31.9526 18.6932 30.1067 18.7773C26.7112 18.9617 23.2115 20.2981 20.9182 22.8654C19.466 24.4585 18.6308 26.4886 18.7793 28.6647C18.9219 30.7559 20.1467 32.82 21.6971 34.1947C24.8308 36.9732 29.6597 38.0887 33.7341 37.2177Z" fill="#464646"/>
<path d="M20.3384 11.2706C21.3638 11.1148 22.3217 11.8186 22.4795 12.8437C22.6372 13.8688 21.9352 14.828 20.9104 14.9877C19.8829 15.1478 18.9205 14.4435 18.7624 13.4157C18.6042 12.3879 19.3103 11.4268 20.3384 11.2706Z" fill="#464646"/>
<path d="M10.952 11.2764C11.9698 11.1114 12.9302 11.7981 13.1031 12.8146C13.2761 13.831 12.5968 14.7967 11.5817 14.9775C10.5554 15.1604 9.57676 14.472 9.4019 13.4443C9.22707 12.4166 9.923 11.4433 10.952 11.2764Z" fill="#464646"/>
<path d="M35.3803 22.5169C36.4057 22.3792 37.3497 23.096 37.493 24.1207C37.6359 25.1455 36.9238 26.0932 35.8998 26.2414C34.8684 26.3907 33.9123 25.6725 33.7683 24.6403C33.6243 23.6081 34.3474 22.6556 35.3803 22.5169Z" fill="#464646"/>
<path d="M26.021 22.5173C26.6905 22.437 27.3515 22.7224 27.7522 23.2648C28.1529 23.8072 28.2314 24.5229 27.9579 25.1393C27.6844 25.7557 27.1009 26.1776 26.4299 26.2444C25.4069 26.3463 24.4926 25.6053 24.3805 24.5833C24.2683 23.5613 25.0001 22.6397 26.021 22.5173Z" fill="#464646"/>
</svg>
