<svg width="245" height="187" viewBox="0 0 245 187" fill="none" xmlns="http://www.w3.org/2000/svg">
<g filter="url(#filter0_d_608_2252)">
<path d="M109.919 61.4876C111.713 63.1658 119.322 72.8715 120.272 75.3144C120.56 76.0552 121.636 82.0776 122.197 83.9388C130.342 77.6001 138.853 69.5606 146.864 63.3646C148.504 63.9222 171.824 73.7139 172.057 74.5771C174.314 82.9753 172.409 94.236 176.593 102.33C178.912 106.813 178.665 108.427 177.552 113.07C181.483 117.185 186.021 120.177 189.671 124.306C190.052 124.736 190.481 125.762 190.505 126.394C190.53 130.221 188.485 134.931 186.294 138.01C184.439 140.616 181.187 140.607 178.337 140.461C174.052 140.244 169.963 140.441 165.697 140.815L164.418 142.79C167.645 146.957 170.514 151.628 166.976 156.533C168.527 156.106 171.105 154.929 172.656 154.226C173.812 154.441 177.283 155.016 178.228 155.351C181.407 155.846 180.87 157.319 180.947 160.078C179.151 161.303 175.286 163.513 173.236 164.251C171.481 163.609 165.237 161.575 164.356 160.261L164.539 159.174L164.133 158.831C163.535 159.408 162.548 159.794 161.773 160.161C156.862 159.859 153.661 158.159 149.786 155.153C146.947 157.348 144.499 159.372 140.755 159.857C134.159 161.743 125.406 162.262 118.597 162.061L115.783 161.838C111.173 169.555 111.04 175.473 100.088 173.323C86.8702 170.728 88.3637 166.992 85.9898 155.272L82.6962 153.877C80.8952 156.001 78.7682 158.8 75.7731 158.855C71.9873 158.924 60.3409 153.805 60.0431 149.602C59.7567 145.561 60.7153 139.23 60.8983 134.831C57.0556 129.442 54.3612 125.254 51.9655 118.958C53.5306 117.025 55.5645 114.8 57.6008 113.373C62.1432 114.404 66.6963 115.395 71.2556 116.352C73.6847 114.361 78.9199 110.383 80.793 107.936C81.3321 107.231 82.8527 101.755 83.1669 100.576C83.6121 98.9111 84.5634 95.849 84.5886 94.1142C84.6065 92.9121 83.1488 89.4989 83.299 88.3329C83.8878 83.7398 84.842 78.1885 85.8306 73.7067C88.8462 71.7485 93.9552 69.3701 97.3279 67.6782C101.061 65.8061 106.145 63.0253 109.919 61.4876Z" fill="#38211D"/>
<path d="M107.56 67.9965L108.353 68.3989L108.58 68.2143C110.766 70.7517 114.551 74.4287 116.342 76.9505C116.492 78.2466 117.052 83.9232 117.52 84.6716C120.808 89.9302 126.547 98.8155 130.244 103.598C131.298 103.519 132.778 103.453 133.79 103.298C134.4 103.715 134.131 103.519 134.486 104.399L134.395 104.729C133.227 104.365 131.725 104.611 130.426 104.571C129.849 109.422 125.14 125.693 123.271 130.48C124.939 133.716 131.903 149.291 133.467 150.762C136.408 153.533 140.436 155.078 143.334 157.778C142.832 158.01 142.61 158.198 142.1 158.191C140.2 157.057 138.546 155.95 136.719 154.717C135.273 156.186 124.818 154.74 122.46 154.333C122.253 154.159 122.046 153.986 121.839 153.812L121.524 153.195L121.09 153.083C118.756 154.517 114.124 162.376 112.691 165.117C109.256 171.689 107.756 174.026 99.9806 172.204C99.0616 171.98 98.1479 171.737 97.2395 171.473C96.719 170.281 94.2485 167.961 93.5484 166.262C91.8022 162.033 91.1906 156.737 89.9996 152.373C87.2212 142.214 84.0488 140.285 75.2111 135.771C71.6693 133.961 59.8579 124.607 58.8041 120.691C57.5938 120.373 54.7604 120.006 53.4126 119.794C53.4699 119.47 53.4991 118.937 53.5276 118.592L57.8213 114.407C62.3453 115.618 66.913 116.658 71.5141 117.523C74.1376 115.606 76.6121 113.292 79.1539 111.285C82.8606 108.637 83.0022 104.285 84.1629 100.84C86.3296 94.4176 85.8248 94.1816 84.4394 88.3404C84.1501 87.1282 86.1532 77.6709 86.5112 75.4278C86.5902 75.0044 86.7942 74.688 86.9892 74.2831C87.785 75.1195 88.6709 76.224 89.4288 77.1184C91.929 75.497 104.903 68.8381 107.56 67.9965Z" fill="#F7BDC0"/>
<path d="M86.5092 75.4272C87.2752 76.2809 88.2511 77.4347 89.0643 78.2021C88.5819 81.2885 87.771 85.2897 87.8136 88.354C87.8304 89.5866 89.2618 92.8591 89.0979 93.9859C88.3057 99.3596 86.042 106.341 84.5011 111.567C81.1155 114.727 75.4823 118.662 71.6533 121.836C67.8865 121.101 64.1106 120.421 60.325 119.79C58.788 119.533 54.7629 118.96 53.5256 118.591L57.8193 114.407C62.3433 115.617 66.911 116.658 71.5121 117.523C74.1356 115.605 76.6102 113.291 79.1519 111.285C82.8586 108.636 83.0003 104.285 84.161 100.84C86.3276 94.417 85.8229 94.1809 84.4374 88.3398C84.1481 87.1275 86.1512 77.6702 86.5092 75.4272Z" fill="#FAE2E3"/>
<path d="M107.56 67.9965L108.353 68.3989L108.58 68.2143C110.766 70.7517 114.551 74.4287 116.342 76.9505C116.492 78.2466 117.052 83.9232 117.52 84.6716C120.808 89.9302 126.547 98.8155 130.244 103.598C131.298 103.519 132.778 103.453 133.79 103.298C134.4 103.715 134.131 103.519 134.486 104.399L134.395 104.729C133.227 104.365 131.725 104.611 130.426 104.571C129.849 109.422 125.14 125.693 123.271 130.48C124.939 133.716 131.903 149.291 133.467 150.762C136.408 153.533 140.436 155.078 143.334 157.778C142.832 158.01 142.61 158.198 142.1 158.191C140.2 157.057 138.546 155.95 136.719 154.717C132.97 152.073 132.198 151.791 130.195 147.543C127.553 141.946 125.034 136.204 122.113 130.756C124.254 122.239 127.943 113.409 129.523 104.596C127.339 101.79 117.331 87.4049 116.431 84.9003C115.643 82.7125 115.63 79.7532 115.374 77.4233C113.907 75.4133 109.634 70.9221 107.787 69.0549C102.082 71.834 95.4935 74.7965 90.0999 77.9952C89.5643 85.4427 87.8365 86.7468 90.2759 93.8418C90.6631 94.9644 86.0959 110.248 85.2585 112.485C80.8297 116.025 76.3759 119.533 71.8992 123.007C67.5396 122.201 63.1738 121.429 58.8041 120.691C57.5938 120.373 54.7604 120.006 53.4126 119.794C53.4699 119.47 53.4991 118.937 53.5276 118.592C54.7649 118.961 58.79 119.534 60.327 119.79C64.1125 120.421 67.8885 121.102 71.6553 121.836C75.4843 118.663 81.1175 114.728 84.5031 111.567C86.044 106.342 88.3077 99.3603 89.0999 93.9865C89.2638 92.8597 87.8324 89.5873 87.8156 88.3547C87.773 85.2903 88.5839 81.2892 89.0662 78.2027C88.2531 77.4354 87.2772 76.2815 86.5112 75.4278C86.5902 75.0044 86.7942 74.688 86.9892 74.2831C87.785 75.1195 88.6709 76.224 89.4288 77.1184C91.929 75.497 104.903 68.8381 107.56 67.9965Z" fill="#38211D"/>
<path d="M172.847 108.083C174.347 108.412 175.899 108.528 177.43 108.68C177.193 109.703 176.304 112.948 176.588 114.035C176.912 114.289 177.765 114.85 177.994 115.118C184.952 123.276 193.069 122.131 187.181 134.253C183.766 134.914 179.773 134.275 176.607 132.824C173.368 131.339 172.198 128.643 169.068 131.588C167.074 134.871 166.06 138.197 163.473 141.812C162.048 140.422 160.714 139.448 159.108 138.288C165.199 131.585 170.214 116.715 172.847 108.083Z" fill="#F7BDC0"/>
<path d="M53.4102 119.792C54.758 120.004 57.5914 120.371 58.8017 120.69C59.8555 124.605 71.6669 133.96 75.2087 135.769C84.0464 140.284 87.2188 142.213 89.9972 152.372C91.1882 156.735 91.7998 162.031 93.546 166.261C94.2461 167.959 96.7166 170.28 97.2371 171.471C96.4497 171.3 95.676 171.072 94.9191 170.793C92.6906 169.989 91.8319 169.518 90.1852 167.538C87.7998 164.663 86.4283 145.715 83.7047 144.747C83.3124 145.729 85.2289 152.092 85.6505 153.896C70.8028 146.754 60.1127 134.65 53.4102 119.792Z" fill="#ED9AA0"/>
<path d="M145.981 142.09C144.22 133.43 152.474 135.518 157.162 138.291L158.446 139.044C158.728 138.547 158.655 138.69 159.106 138.288C160.712 139.449 162.046 140.423 163.471 141.813C163.332 142.128 163.119 142.523 163.076 142.836L163.351 143.406C166.602 147.06 171.067 155.288 163.176 156.43L161.154 156.011L160.174 155.735C156.378 154.126 153.399 152.433 150.575 149.329C149.724 148.812 148.497 146.977 147.885 146.105C146.903 144.498 146.661 143.859 145.981 142.09Z" fill="#FAD27D"/>
<path d="M148.876 145.278C148.771 144.926 148.145 142.496 148.189 142.278C149.19 142.226 150.24 143.078 151.238 143.559C153.162 144.478 164.09 147.403 164.935 148.19L164.785 148.558C164.363 149.56 164.462 149.846 164.527 150.977C163.346 150.804 150.259 145.96 148.876 145.278Z" fill="#FBBB55"/>
<path d="M150.578 149.327C153.865 150.074 159.221 152.746 161.13 152.936L162.722 153.663C161.814 153.985 161.035 154.141 160.443 154.878L160.177 155.733C156.38 154.125 153.402 152.431 150.578 149.327Z" fill="#FBBB55"/>
<path d="M157.163 138.29L158.446 139.043C158.729 138.546 158.656 138.689 159.107 138.287C160.713 139.447 162.047 140.421 163.472 141.811C163.333 142.127 163.12 142.522 163.076 142.835L163.352 143.405C161.847 143.462 156.762 142.349 156.028 140.948L156.78 140.158L156.754 139.684L156.04 139.178C156.477 138.791 156.695 138.636 157.163 138.29Z" fill="#FBBB55"/>
<path d="M158.444 139.044C158.727 138.546 158.653 138.69 159.104 138.288C160.71 139.448 162.044 140.422 163.469 141.812C163.33 142.127 163.117 142.523 163.074 142.836C162.178 142.221 159.536 139.908 158.444 139.044Z" fill="#2E1814"/>
<path d="M156.027 140.948C154.259 138.926 152.212 138.476 149.654 139.014L149.217 139.109L148.988 138.87C149.871 136.264 154.337 138.343 156.039 139.178L156.753 139.685L156.778 140.158L156.027 140.948Z" fill="#2E1814"/>
<path d="M162.723 153.664C163.931 153.519 163.624 154.014 164.922 154.219C163.494 156.284 163.367 155.332 161.159 156.01L160.178 155.735L160.445 154.879C161.037 154.142 161.816 153.986 162.723 153.664Z" fill="#FBD692"/>
<path d="M164.785 148.557C165.703 149.816 166.687 151.945 164.862 152.94L164.737 152.607L164.527 150.976C164.462 149.846 164.363 149.559 164.785 148.557Z" fill="#2A2519"/>
<path d="M161.128 152.937C162.007 152.521 163.876 152.331 164.737 152.607L164.862 152.939L164.918 154.219C163.619 154.014 163.927 153.519 162.719 153.664L161.128 152.937Z" fill="#F7E2A5"/>
<path d="M130.423 104.569C131.722 104.609 133.224 104.364 134.392 104.727C132.478 112.697 127.684 123.247 126.382 130.564C127.887 133.484 129.361 136.424 130.797 139.381C134.227 146.401 135.9 149.022 143.31 152.895L145.282 150.513C146.716 152.169 147.307 152.919 148.998 154.28C147.556 155.375 144.98 157.579 143.331 157.776C140.433 155.076 136.406 153.532 133.465 150.761C131.9 149.29 124.936 133.715 123.268 130.478C125.137 125.691 129.846 109.421 130.423 104.569Z" fill="#FAE2E3"/>
<path d="M108.579 68.2136L110.043 63.2418C113.021 66.8861 116.938 71.3988 119.192 75.4542C120.091 77.0776 119.806 81.4522 121.071 83.5316C125.08 90.1105 129.322 97.0394 133.789 103.297C132.777 103.452 131.296 103.518 130.243 103.597C126.546 98.8147 120.807 89.9294 117.519 84.6708C117.051 83.9224 116.491 78.2458 116.341 76.9497C114.55 74.4279 110.765 70.7509 108.579 68.2136Z" fill="#F9DDE0"/>
<path d="M116.412 160.803C118.321 157.99 119.482 156.214 121.838 153.811C122.045 153.984 122.252 154.158 122.459 154.331C124.818 154.739 135.272 156.185 136.718 154.715C138.545 155.949 140.199 157.056 142.099 158.189L141.258 158.602L142.302 158.767L142.319 158.937L140.781 159.515L140.755 159.857C134.158 161.744 125.405 162.263 118.596 162.061C119.159 161.638 118.987 161.723 119.362 161.022C119.075 160.944 116.857 160.832 116.412 160.803Z" fill="#ED9AA0"/>
<path d="M119.36 161.023C127.196 161.221 133.657 160.592 141.256 158.602L142.3 158.767L142.318 158.938L140.779 159.515L140.753 159.858C134.156 161.744 125.403 162.263 118.594 162.062C119.157 161.639 118.986 161.724 119.36 161.023Z" fill="#2E1814"/>
<path d="M169.069 131.588C172.199 128.643 173.369 131.339 176.608 132.824C179.774 134.275 183.767 134.915 187.182 134.254C185.2 138.595 183.993 139.52 179.159 139.405C174.865 139.304 170.294 139.216 166.022 139.671C167.007 138.01 169.775 133.78 169.773 132.135L169.069 131.588Z" fill="#ED9AA0"/>
<path d="M145.981 142.09C146.661 143.859 146.903 144.498 147.885 146.105C148.498 146.977 149.724 148.812 150.575 149.329C153.399 152.433 156.378 154.126 160.174 155.735L161.154 156.011L163.176 156.43L162.487 157.141L162.613 157.327L163.004 157.378C163.86 157.481 164.406 157.276 165.133 157.524L165.157 157.747L164.918 157.805C164.376 157.945 163.834 158.094 163.296 158.25L163.205 158.463C163.624 158.807 163.588 158.794 164.129 158.832C163.531 159.41 162.545 159.795 161.77 160.162C156.858 159.86 153.658 158.16 149.782 155.155L149.35 154.408L149.877 153.945C149.622 153.674 149.557 153.562 149.342 153.258C149.477 152.452 150.361 151.579 150.916 150.906L150.246 150.504C149.6 151.162 148.924 151.757 148.24 152.374C147.524 151.53 146.876 150.65 146.21 149.767L145.535 149.004C145.029 147.876 144.87 147.552 144.152 146.553L144.154 146.808C143.844 146.311 143.902 145.927 143.972 145.336C144.224 144.582 144.773 143.803 145.209 143.113C145.755 142.645 145.596 142.758 145.981 142.09Z" fill="#2E1814"/>
<path d="M150.917 150.905C151.999 152.07 152.43 152.42 153.666 153.382L151.857 155.479L149.878 153.945C149.623 153.674 149.558 153.561 149.343 153.257C149.478 152.452 150.363 151.578 150.917 150.905Z" fill="#FBBB55"/>
<path d="M148.083 147.851C148.838 148.745 149.538 149.571 150.251 150.503C149.605 151.161 148.929 151.756 148.245 152.374C147.529 151.53 146.881 150.649 146.215 149.766L148.083 147.851Z" fill="#FBBB55"/>
<path d="M157.704 158.586C158.154 157.943 158.667 157.075 159.097 156.396C160.568 156.863 160.977 156.941 162.489 157.141L162.614 157.328C162.424 157.998 161.736 158.767 161.282 159.352C159.996 159.158 158.959 158.895 157.704 158.586Z" fill="#FBBB55"/>
<path d="M144.153 146.553C144.646 145.772 145.152 144.936 145.661 144.173C146.215 145.114 146.82 146.21 147.423 147.102C146.933 147.671 146.164 148.703 145.536 149.004C145.029 147.876 144.87 147.552 144.153 146.553Z" fill="#FBBB55"/>
<path d="M154.35 153.907C154.734 154.024 157.953 155.796 158.462 156.068L156.909 158.177C155.771 157.919 153.708 156.559 152.68 155.907L154.35 153.907Z" fill="#FBBB55"/>
<path d="M86.9836 74.2821C89.3455 72.8072 93.2183 70.9662 95.74 69.7039C100.118 67.4989 104.511 65.3185 108.916 63.1628C108.432 64.6614 107.98 66.4573 107.554 67.9955C104.898 68.8372 91.9235 75.496 89.4233 77.1174C88.6654 76.2231 87.7795 75.1185 86.9836 74.2821Z" fill="#FAE2E3"/>
<path d="M166.975 156.535C168.526 156.107 171.105 154.93 172.655 154.228C173.811 154.442 177.282 155.017 178.227 155.353C178.602 155.966 178.572 155.646 178.421 156.317L178.486 156.503C176.646 157.508 174.66 158.422 172.761 159.329C170.853 158.573 169.388 158.132 167.4 157.698C167.127 157.497 166.819 157.088 166.585 156.812L166.975 156.535Z" fill="#F7BDC0"/>
<path d="M166.975 156.535C168.526 156.107 171.105 154.93 172.655 154.228C173.811 154.442 177.282 155.017 178.227 155.353C178.602 155.966 178.572 155.646 178.421 156.317L178.486 156.503C177.248 156.078 174.232 155.656 172.832 155.437C171.025 156.165 169.203 156.946 167.4 157.698C167.127 157.497 166.819 157.088 166.585 156.812L166.975 156.535Z" fill="#38211D"/>
<path d="M144.3 139.017C144.527 140.552 144.622 141.672 145.213 143.112C144.777 143.802 144.229 144.581 143.976 145.335C142.246 143.828 143.624 140.803 144.3 139.017Z" fill="#FBBB55"/>
<path d="M146.461 70.054C153.252 73.1098 160.041 76.3814 166.842 79.4822L167.176 82.4248L167.625 83.2228L167.886 83.1335L168.101 81.8558C168.282 83.7376 168.527 85.7928 168.659 87.665L168.173 87.687C167.891 88.3859 168.029 88.5495 168.129 89.3753L167.904 89.5873C167.866 97.9248 168.635 100.117 171.846 107.441C169.981 116.095 163.627 130.616 158.303 137.735C156.474 136.888 154.464 135.817 152.644 134.899C151.841 128.463 143.295 128.55 138.539 129.144C134.868 126.026 134.057 125.184 129.207 124.504L130.259 121.187C130.979 121.197 131.969 121.224 132.684 121.162C136.076 120.873 139.218 119.253 141.423 116.658C148.153 108.708 145.138 94.8359 134.512 92.1095C132.065 91.4827 130.133 91.7446 127.684 92.0122C126.732 90.6573 125.855 89.1854 124.98 87.7741C132.306 82.0703 139.469 76.1613 146.461 70.054Z" fill="#ED9AA0"/>
<path d="M168.1 81.8548C168.281 83.7366 168.526 85.7918 168.658 87.664L168.172 87.686C167.89 88.3849 168.028 88.5485 168.128 89.3743L167.904 89.5863C167.608 87.7062 167.374 84.4059 167.175 82.4238L167.625 83.2218L167.885 83.1325L168.1 81.8548Z" fill="#2E1814"/>
<path d="M129.332 94.5133C128.801 93.6507 128.712 93.8321 128.844 93.0827C130.539 92.3756 134.153 92.9144 135.792 93.5881C143.191 96.6238 145.542 105.599 142.549 112.6C141.814 114.35 140.723 115.927 139.343 117.23C137.223 118.939 134.347 120.034 131.607 119.991C130.829 119.578 131.061 119.88 130.819 119.11C131.85 117.085 134.062 119.04 135.951 116.992L135.726 116.485C135.06 116.364 132.642 116.918 131.651 117.064C132.609 114.244 135.036 107.413 135.46 104.761C135.363 104.105 135.105 103.422 134.897 102.784C133.895 101.655 130.864 96.8767 130.039 95.5066C129.804 94.6871 130.03 95.007 129.332 94.5133Z" fill="#FBBB55"/>
<path d="M134.901 102.784C138.071 102.346 138.545 105.613 141.186 106.466C141.116 108.278 140.774 109.476 140.642 111.09C138.609 111.433 136.467 106.339 135.464 104.761C135.366 104.105 135.108 103.421 134.901 102.784Z" fill="#FAD27D"/>
<path d="M129.332 94.5132C131.683 94.2627 135.326 94.6091 136.784 96.7685L136.577 96.9764C133.873 96.6646 134.169 95.3764 130.039 95.5065C129.804 94.687 130.03 95.0068 129.332 94.5132Z" fill="#412820"/>
<path d="M141.185 106.467L141.344 105.244L141.643 105.049C142.527 106.277 141.999 109.615 141.115 110.855L140.641 111.092C140.773 109.478 141.115 108.28 141.185 106.467Z" fill="#2E1814"/>
<path d="M135.97 115.653C134.948 114.62 133.95 113.034 134.369 111.537L134.782 111.321C136.336 111.816 138.091 114.973 138.933 116.441L138.65 116.79C137.433 116.891 136.792 116.464 135.97 115.653Z" fill="#F7E2A5"/>
<path d="M139.189 99.2372C140.552 99.499 141.418 101.38 141.357 102.703C139.948 102.254 138.982 100.684 139.189 99.2372Z" fill="#412820"/>
<path d="M61.9588 136.415C62.6026 136.729 64.8674 139.444 65.4286 140.122C70.0989 145.744 75.4712 149.55 81.7158 153.258C80.6046 154.557 79.8801 155.351 78.645 156.53C77.9719 157.013 77.1438 157.429 76.4093 157.833C71.2009 157.357 62.9847 153.951 60.7831 148.839C61.2135 144.702 61.607 140.561 61.9588 136.415Z" fill="#ED9AA0"/>
<path d="M167.875 79.5979C169.004 78.2629 170.241 76.8541 171.308 75.4845C171.813 79.8063 172.245 84.1362 172.604 88.4734C172.813 90.8895 173.073 96.126 173.768 98.1846C174.727 101.031 176.452 104.663 177.575 107.568C176.277 107.401 174.204 107.077 172.962 107.022C172.006 104.926 170.135 101.083 169.719 98.9676C169.032 95.4819 169.124 91.245 168.66 87.6641C168.528 85.7919 168.283 83.7367 168.101 81.8549L167.875 79.5979Z" fill="#FAE2E3"/>
<path d="M147.353 64.7011C148.553 65.1547 149.99 65.8486 151.161 66.4003C157.519 69.3995 164.093 71.7903 170.563 74.5037C169.9 75.4217 169.046 76.4258 168.324 77.319C167.952 77.9056 167.868 78.2022 167.25 78.481L146.57 68.7901C146.874 67.5088 147.113 66.0113 147.353 64.7011Z" fill="#FAE2E3"/>
<path d="M128.964 125.413C131.7 125.835 133.281 126.112 135.471 128.086C134.531 129.325 130.415 126.951 128.775 126.508C133.055 129.677 136.292 131.471 137.379 137.538C137.688 139.254 137.424 142.604 136.579 144.139C136.277 144.959 136.171 145.065 135.706 145.779L135.322 145.777C133.389 142.737 129.566 134.201 127.647 130.523C127.46 130.165 127.647 129.41 127.739 128.995C128.131 127.846 128.544 126.538 128.964 125.413Z" fill="#FBBB55"/>
<path d="M128.969 125.412C131.706 125.835 133.286 126.111 135.476 128.085C134.536 129.324 130.42 126.95 128.78 126.508C133.061 129.676 136.297 131.47 137.384 137.537C137.693 139.253 137.429 142.604 136.584 144.139L136.422 143.997C136.311 143.447 136.435 143.765 136.194 143.255C135.253 141.26 135.982 138.937 134.913 136.464C133.037 132.125 131.658 130.855 127.744 128.995C128.137 127.845 128.55 126.538 128.969 125.412Z" fill="#FAD27D"/>
<path d="M145.812 65.6679C145.881 66.0677 145.643 68.4122 145.627 69.1731C140.531 73.7874 135.409 78.0679 130.005 82.3049C128.593 83.4128 125.875 85.9124 124.491 86.7534L124.141 86.5504C123.727 85.987 123.351 85.2909 122.994 84.6827C130.671 78.4293 138.276 72.0908 145.812 65.6679Z" fill="#FAE2E3"/>
<path d="M140.06 131.69L139.542 130.545C141.025 127.864 152.426 131.264 150.966 134.537C150.243 135.13 148.399 134.889 147.217 135.047C144.285 137.569 143.291 138.369 141.82 142.059C141.812 139.217 141.648 135.144 140.413 132.537L140.06 131.69Z" fill="#FBBB55"/>
<path d="M140.063 131.69C141.964 131.193 142.402 131.03 144.292 131.588L144.456 131.915C143.375 132.691 141.772 132.526 140.415 132.536L140.063 131.69Z" fill="#38211D"/>
<path d="M179.141 157.298C179.708 157.496 179.663 157.506 180.039 157.988L179.908 158.907C179.054 160.276 175.894 161.766 174.333 162.601L173.935 162.65C173.57 161.992 173.632 161.017 173.591 160.195C175.489 159.353 177.318 158.302 179.141 157.298Z" fill="#FAE2E3"/>
<path d="M166.414 158.258C168.258 158.965 170.602 159.677 172.507 160.317C172.509 161.305 172.697 161.989 172.208 162.657C170.45 162.015 167.149 160.913 165.62 160.06C165.631 159.291 165.96 159.035 166.414 158.258Z" fill="#FAE2E3"/>
<path d="M142.645 147.409L143.155 147.428C143.764 148.366 144.148 148.876 144.864 149.74C144.099 150.563 143.894 150.795 143.002 151.448L142.515 151.363L139.151 148.693C140.279 148.334 141.526 147.832 142.645 147.409Z" fill="#ED9AA0"/>
<path d="M138.258 141.175C139.263 141.188 139.747 141.125 140.417 141.719C140.623 142.616 140.134 143.691 139.837 144.615C139.129 144.499 138.792 144.462 138.103 144.208C137.679 143.371 138.081 142.313 138.258 141.175Z" fill="#FBBB55"/>
<path d="M138.287 137.082C139.065 136.948 139.571 136.756 140.267 137.087C140.8 137.792 140.638 139.115 140.635 140.075C139.912 140.177 139.372 140.341 138.711 140.076C138.16 139.157 138.33 138.29 138.287 137.082Z" fill="#FBBB55"/>
<path d="M138.734 132.632L139.231 132.888C140.185 134.326 140.505 135.054 139.125 136.138L138.407 135.959C137.042 134.607 136.857 133.394 138.734 132.632Z" fill="#FBBB55"/>
<path d="M135.833 128.968C137.175 129.46 138.439 130.118 138.358 131.705L137.688 132.22C136.395 132.072 135.227 130.97 135.195 129.625L135.833 128.968Z" fill="#FBBB55"/>
<path d="M137.327 145.082C138.313 145.168 138.642 145.181 139.293 145.74C139.422 146.585 138.994 147.135 138.582 147.927L138.071 148.107C136.362 147.47 136.747 146.389 137.327 145.082Z" fill="#FBBB55"/>
<path d="M142.223 145.573L142.839 146.002L142.739 146.405C141.881 146.795 141.356 146.964 140.457 147.254L140.277 147.347L140.035 147.187C140.309 145.949 141.202 145.835 142.223 145.573Z" fill="#F7BDC0"/>
<path d="M60.3576 24.6567C63.7171 24.964 77.9819 53.1276 80.1914 57.9796C80.5936 58.8644 80.9201 62.6994 81.0451 63.9936C79.1468 66.1173 70.4255 74.2401 68.1599 75.8993C65.6699 75.0563 58.4366 71.4461 55.7402 70.193C52.484 68.7597 48.0329 66.1692 44.5648 65.8206C41.9607 65.5591 39.2525 65.8823 36.5377 65.5104L31.0385 60.1506C31.0793 59.9283 31.1482 59.5251 31.2192 59.3127C36.156 44.1764 47.2014 32.5552 60.3576 24.6567Z" fill="#38211D"/>
<path d="M60.4984 25.8413C60.5158 25.8454 60.533 25.8471 60.5482 25.8533C63.0714 26.858 77.1021 53.4146 78.8931 57.8248C74.9573 61.6533 70.9347 65.3909 66.8273 69.0345C62.873 67.4975 58.8376 65.7563 54.91 64.1219C53.1465 63.351 47.5079 60.8146 45.9578 60.4517C42.7828 59.7068 35.602 59.4533 32.261 59.4753C37.7354 44.1277 47.0547 34.4572 60.4984 25.8413Z" fill="#F7BDC0"/>
<path d="M50.6087 40.7351C52.0307 40.5487 52.7843 40.3346 53.8541 41.4555C54.889 43.8513 52.4288 46.7433 50.9666 48.5152C49.3919 50.4255 47.5408 53.4309 45.5733 54.8171C45.3823 54.8501 45.1908 54.8788 44.9965 54.9037C43.835 55.0479 43.3424 54.9088 42.4489 54.2125C40.097 50.2906 47.3145 42.677 50.6087 40.7351Z" fill="#FAE2E3"/>
<path d="M57.0671 35.3165C58.236 34.931 59.4987 35.5534 59.902 36.7151C60.3077 37.8769 59.7063 39.1484 58.5511 39.5726C57.7872 39.8534 56.9312 39.7002 56.312 39.1717C55.6929 38.6431 55.4063 37.8217 55.5619 37.0231C55.7198 36.2239 56.2958 35.5716 57.0671 35.3165Z" fill="#FAE2E3"/>
<path d="M33.0352 60.6204C35.6756 60.5173 42.2188 60.9786 44.8169 61.3982C46.5062 61.6716 51.7116 64.0309 53.5055 64.789C57.8428 66.6326 62.1976 68.4336 66.57 70.1915C66.7369 71.4911 67.047 73.0556 67.2736 74.3704C60.836 71.3774 52.5277 66.9334 45.773 64.9215C44.3804 64.5063 38.8604 64.6051 37.1383 64.6098C35.9115 63.2807 34.3643 61.8805 33.0352 60.6204Z" fill="#F9EEEE"/>
<path d="M79.1618 58.9345C79.6938 59.854 79.846 62.3152 79.9659 63.4614C77.2789 66.539 71.6266 71.4215 68.4583 74.3022C68.1473 72.8735 67.8434 71.443 67.549 70.0106C71.4106 66.4356 75.5267 62.7086 79.1618 58.9345Z" fill="white"/>
<path d="M160.261 24.3344C168.651 25.592 176.579 28.9631 183.305 34.1298C192.041 40.8972 200.796 53.907 202.199 64.8382C200.766 66.2026 199.265 67.4121 197.699 68.6144C194.774 67.5043 191.868 66.3401 188.986 65.1224C186.686 64.2396 176.628 65.9875 173.374 66.3492C169.816 64.2283 166.51 61.526 163.139 59.2872C160.354 57.4399 152.721 57.5181 149.153 57.2689C147.825 55.2939 146.95 53.7203 145.809 51.6468C146.698 49.1989 151.849 40.9431 153.479 37.9063C155.749 33.6744 158.023 28.3057 160.261 24.3344Z" fill="#38211D"/>
<path d="M160.814 25.4862C166.091 26.4012 171.185 28.1574 175.904 30.6876C189.733 38.2103 196.712 49.3314 201.104 64.0231C197.482 62.4975 193.685 61.1067 190.003 59.7077C186.911 58.8035 177.579 60.2053 173.925 60.6017C171.493 59.0505 163.803 52.9214 161.904 52.2348C160.349 51.6722 149.706 51.3494 147.081 51.191C151.729 43.9827 157.307 33.226 160.814 25.4862Z" fill="#F7BDC0"/>
<path d="M170.184 32.2636C173.642 32.0741 183.408 36.9073 178.51 41.3385C177.044 41.7434 175.886 41.4106 174.607 40.6519C171.323 38.7014 166.624 36.3516 170.184 32.2636Z" fill="#FAE2E3"/>
<path d="M159.719 29.8241C163.301 29.2735 168.276 29.6757 164.917 34.6274C161.583 35.106 157.271 34.0938 159.719 29.8241Z" fill="white"/>
<path d="M147.348 52.2689C151.861 52.4016 156.876 52.8165 161.505 52.9968L173.445 61.5673C173.251 62.4415 173.113 63.4235 172.97 64.3141C172.936 64.5128 172.976 64.3788 172.703 64.6384C169.394 62.846 165.773 59.3072 162.461 57.7012C159.687 56.3563 152.853 56.3829 149.543 56.2086L147.348 52.2689Z" fill="#FBF4F5"/>
<path d="M174.398 61.5917C177.737 61.3233 185.534 60.1203 188.405 60.4994C190.547 60.7821 198.007 63.9575 200.44 64.9364L199.066 66.117C197.285 67.7551 196.543 67.0734 194.36 66.2851C193.085 65.8253 189.557 63.9416 188.363 63.8609C184.388 63.5912 178.091 64.7155 174.089 65.2436C174.277 63.8457 174.348 63.0009 174.398 61.5917Z" fill="#FAE2E3"/>
<path d="M19.8527 97.9052C20.581 91.2892 22.7078 81.7326 26.465 76.1726C29.435 77.199 33.5588 79.5786 36.5411 80.9697C39.9312 82.5513 42.7712 83.6134 46.2527 84.9672C47.7709 87.4098 51.2872 93.8568 52.4774 96.4927C49.6261 100.742 40.7037 107.538 37.0159 111.514C34.5363 114.188 32.6794 118.492 30.5812 121.553C29.0205 121.666 24.156 122.122 22.8954 121.763C20.1796 115.667 19.3935 104.443 19.8527 97.9052Z" fill="#F7BDC0"/>
<path d="M19.8548 97.9033C20.5831 91.2874 22.7099 81.7307 26.467 76.1707C29.437 77.1971 33.5608 79.5767 36.5431 80.9678C39.9333 82.5495 42.7732 83.6115 46.2547 84.9654C47.773 87.4079 51.2893 93.855 52.4795 96.4908C49.6282 100.74 40.7058 107.537 37.018 111.512C34.5383 114.186 32.6815 118.491 30.5832 121.551C29.0226 121.664 24.158 122.12 22.8974 121.761C23.5045 121.613 24.1741 121.361 24.3406 120.744L23.7442 120.417C26.0626 116.815 28.9312 112.423 31.5564 109.094C32.5264 107.864 35.788 104.896 37.0286 103.7C39.8395 101.01 42.591 98.2605 45.2828 95.449C44.2973 91.9719 42.6646 87.905 41.366 84.4544C36.4941 82.1987 31.666 79.8458 26.8865 77.3972C23.2374 84.1065 21.4941 92.0614 20.7495 99.6042C20.0808 99.0663 20.1976 98.8748 19.8548 97.9033Z" fill="#38211D"/>
<path d="M46.1174 96.2485C46.5071 96.2337 50.1074 96.7131 51.047 96.7791C47.8301 99.8547 44.5888 102.904 41.3253 105.926C34.8213 112.006 34.5267 112.847 29.9622 120.58C28.2225 120.652 26.4836 120.732 24.7456 120.821C26.6601 117.818 28.7204 114.815 30.8041 111.923C32.9858 108.896 35.9957 106.349 38.689 103.77C41.2364 101.335 43.7132 98.827 46.1174 96.2485Z" fill="white"/>
<path d="M42.75 84.89C43.6133 85.1158 44.6203 85.49 45.4781 85.7822C47.0394 88.2418 49.3303 92.9126 50.8602 95.6892L46.3215 95.1558C45.8259 92.7831 43.6732 87.3589 42.75 84.89Z" fill="#FAE2E3"/>
<path d="M19.8554 97.9035C20.1982 98.875 20.0814 99.0665 20.7501 99.6044C20.6937 103.619 21.3944 117.818 23.7448 120.418L24.3412 120.744C24.1747 121.361 23.5051 121.613 22.898 121.761C20.1823 115.666 19.3962 104.442 19.8554 97.9035Z" fill="#2E1814"/>
<path d="M215.307 133.986C218.684 134.956 235.667 145.678 238.649 148.015C238.525 150.24 238.148 152.314 237.7 154.49C235.962 155.131 232.954 155.829 231.096 156.321C227.241 157.369 223.376 158.376 219.501 159.341C216.201 159.267 198.911 159.403 197.19 158.356C196.739 157.038 196.863 153.068 196.866 151.451C197.658 150.677 200.421 148.641 201.338 148.189C205.903 145.941 206.184 142.98 208.117 138.344C210.504 136.873 212.899 135.418 215.307 133.986Z" fill="#2E1814"/>
<path d="M215.42 135.201C216.484 135.539 219.959 137.579 221.029 138.198C226.423 141.316 231.727 144.588 236.934 148.009C231.049 149.644 224.768 151.145 218.822 152.664C212.043 152.273 204.766 152.223 197.855 151.896C206.68 145.952 204.936 148.494 209 139.138C211.151 137.845 213.291 136.532 215.42 135.201Z" fill="#F7BDC0"/>
<path d="M197.988 152.842C200.455 153.255 204.085 153.289 206.642 153.371C210.665 153.506 214.69 153.62 218.716 153.712C219.099 155.019 219.256 156.826 219.339 158.21C212.995 158.256 204.077 158.167 197.821 157.759C197.971 156.544 197.959 154.152 197.988 152.842Z" fill="#F7BDC0"/>
<path d="M218.715 153.712C224.053 152.775 232.103 150.354 237.44 148.866C237.317 150.745 237.224 151.779 236.869 153.618C233.937 154.466 221.833 157.916 219.338 158.21C219.255 156.826 219.099 155.019 218.715 153.712Z" fill="#ED9AA0"/>
<path d="M37.9488 154.451C40.6622 157.206 43.5971 160.498 46.1701 163.403C47.1935 164.62 48.4516 166.044 49.384 167.296C49.6248 168.971 50.7165 174.717 49.9141 175.8C48.11 176.489 30.2398 178.62 28.3119 178.221C24.5574 177.125 19.9995 175.916 16.3884 174.602C15.7556 172.775 15.2329 170.835 14.7009 168.971C17.1364 167.116 20.4871 165.06 23.0854 163.351C27.9197 160.171 32.7104 156.921 37.9488 154.451Z" fill="#F7BDC0"/>
<path d="M46.1705 163.405C47.194 164.621 48.4521 166.045 49.3844 167.298C49.6253 168.972 50.717 174.718 49.9146 175.802C48.1104 176.491 30.2403 178.621 28.3123 178.222C29.0628 178.074 29.0906 177.916 29.6086 177.339C28.3858 177.09 27.6516 176.867 26.4771 176.494C27.0685 174.979 27.2592 173.804 28.5035 173.081L38.3976 172.142L38.2777 171.916C38.97 171.817 38.9864 171.811 39.6355 171.549L39.5648 171.376C38.0293 171.28 36.4804 171.486 34.9429 171.636L34.8622 171.389C37.3542 171.139 42.9833 170.673 45.2123 170.102C46.1505 170.397 45.7302 170.155 46.4456 170.965C46.0616 169.366 45.8208 166.287 45.6443 164.553L45.4518 164.135L46.1705 163.405Z" fill="#ED9AA0"/>
<path d="M46.1678 163.404C47.1913 164.62 48.4494 166.044 49.3817 167.297C49.6226 168.971 50.7142 174.717 49.9119 175.801C48.1077 176.49 30.2375 178.62 28.3096 178.221C29.0601 178.073 29.0879 177.915 29.6059 177.338C31.2647 177.356 34.8688 176.856 36.6548 176.64C40.7077 176.158 44.7582 175.652 48.8034 175.118L45.3006 171.203C43.0044 171.564 40.7031 171.875 38.3949 172.141L38.275 171.915C38.9673 171.816 38.9836 171.81 39.6328 171.548L39.562 171.375C38.0265 171.279 36.4777 171.485 34.9401 171.635L34.8595 171.388C37.3515 171.138 42.9805 170.672 45.2095 170.101C46.1478 170.396 45.7275 170.154 46.4429 170.964C46.0589 169.365 45.818 166.286 45.6416 164.552L45.449 164.134L46.1678 163.404Z" fill="#231210"/>
<path d="M45.6406 164.553C48.6566 166.304 48.7282 170.529 49.0437 173.6C48.3899 172.895 47.158 171.466 46.4419 170.965C46.0579 169.366 45.8171 166.287 45.6406 164.553Z" fill="#FAE2E3"/>
<path d="M37.9488 154.451C40.6622 157.206 43.5971 160.498 46.1701 163.403L45.4513 164.134L45.6439 164.552C45.8203 166.286 46.0612 169.365 46.4452 170.964C45.7297 170.153 46.1501 170.396 45.2118 170.101C44.8554 168.946 44.2447 164.119 44.0946 162.793C42.3696 160.687 39.6531 157.925 37.7443 155.876C34.9649 156.967 19.7248 166.543 16.9544 168.789L16.1119 169.376L16.08 169.64C19.0707 170.775 25.2908 172.544 28.5031 173.08C27.2587 173.802 27.0681 174.978 26.4766 176.493C27.6511 176.866 28.3853 177.088 29.6082 177.337C29.0902 177.914 29.0624 178.073 28.3119 178.221C24.5574 177.125 19.9995 175.916 16.3884 174.602C15.7556 172.775 15.2329 170.835 14.7009 168.971C17.1364 167.116 20.4871 165.06 23.0854 163.351C27.9197 160.171 32.7104 156.921 37.9488 154.451Z" fill="#38211D"/>
<path d="M16.082 169.638C19.0727 170.774 25.2928 172.543 28.5051 173.078C27.2607 173.801 27.0701 174.976 26.4787 176.491C23.375 175.61 20.29 174.673 17.2212 173.678C16.8189 172.502 16.4195 170.87 16.082 169.638Z" fill="#F7BDC0"/>
<path d="M16.956 168.789C24.9902 171.469 26.6661 172.239 34.8634 171.387L34.9441 171.634C36.4816 171.485 38.0305 171.278 39.566 171.375L39.6367 171.547C38.9876 171.809 38.9712 171.816 38.279 171.914L38.3988 172.14L28.5047 173.08C25.2925 172.544 19.0723 170.775 16.0816 169.639L16.1136 169.376L16.956 168.789Z" fill="#2D1817"/>
<path d="M34.9376 171.636C36.4752 171.486 38.024 171.28 39.5595 171.376L39.6303 171.549C38.9811 171.81 38.9648 171.817 38.2725 171.916C36.7775 171.932 35.6407 172.153 33.8637 172.12L33.994 171.966L33.7205 172.025C33.6815 171.975 33.7028 172.017 33.694 171.833L34.9376 171.636Z" fill="#2E1814"/>
<path d="M103.253 12.109C105.525 11.8703 111.44 11.1541 113.345 11.8154C113.398 11.9711 113.452 12.1265 113.504 12.2818C113.694 18.4173 112.526 24.6396 112.103 30.7409C111.948 32.9728 112.214 34.2438 112.374 36.3991C112.233 36.6178 112.093 36.8367 111.952 37.0557C108.988 38.6559 108.759 38.7223 105.233 38.4977C104.335 36.7422 103.168 32.9604 102.514 30.9702C101.105 26.6167 99.6709 22.2711 98.2151 17.933C99.6788 15.7642 101.393 13.9383 103.253 12.109Z" fill="#2E1814"/>
<path d="M102.893 14.0165C104.589 21.136 107.07 26.7589 108.782 33.1854C108.012 33.9679 106.852 36.2557 106.293 37.3198C105.221 36.633 100.23 20.6035 99.3812 18.0494C100.578 16.5609 101.593 15.4174 102.893 14.0165Z" fill="#ED9AA0"/>
<path d="M109.582 33.5341L110.291 32.8012C111.406 33.0647 111.231 35.3476 111.109 36.2827L111.949 37.0548C108.985 38.655 108.756 38.7215 105.23 38.4968C105.88 38.3628 106.157 38.2379 106.772 38.0043L106.898 37.6858L106.295 37.3189C106.854 36.2547 108.014 33.9669 108.784 33.1844C109.057 33.319 109.298 33.4688 109.582 33.5341Z" fill="#38211D"/>
<path d="M109.584 33.5347L110.293 32.8017C111.408 33.0652 111.233 35.3481 111.111 36.2832C109.985 36.9973 109.469 37.423 108.158 37.5057L107.84 37.2027C108.017 36.0285 108.967 34.6494 109.584 33.5347Z" fill="white"/>
<path d="M104.016 13.015L112.653 12.4044C112.324 17.9695 111.798 23.5218 111.079 29.0502C110.919 30.145 110.77 31.1467 110.554 32.2375L110.224 32.1224C108.166 29.5061 104.492 16.5973 104.016 13.015Z" fill="#F7BDC0"/>
<path d="M192.842 87.6012C192.726 87.3674 192.769 87.0982 192.763 86.7903C193.852 85.318 206.416 79.9972 208.912 78.86C209.736 79.2268 210.55 79.6213 211.351 80.0415C212.526 80.6452 214.841 81.754 215.235 82.9706C216.765 88.2596 215.185 90.1432 213.194 95.0225C212.197 97.4647 210.59 96.727 208.55 96.1809C203.787 94.5427 199.049 92.8046 194.314 91.0858C193.877 90.0946 193.162 88.5895 192.842 87.6012Z" fill="#38211D"/>
<path d="M214.633 83.9324C214.789 83.3288 214.77 83.508 215.234 82.9707C216.763 88.2597 215.183 90.1433 213.192 95.0226C212.196 97.4648 210.589 96.7271 208.549 96.181C203.785 94.5428 199.048 92.8047 194.312 91.0859C193.875 90.0947 193.161 88.5896 192.84 87.6013L193.179 87.1275C194.283 87.5197 193.245 87.4683 194.023 87.8835C194.835 87.5542 207.86 91.3957 209.875 91.9175L210.813 91.4298C212.471 88.9504 213.205 86.1919 214.633 83.9324Z" fill="#412820"/>
<path d="M194.02 87.8849C194.833 87.5555 207.857 91.3971 209.873 91.9189C210.191 93.148 210.496 94.3783 210.785 95.6103C209.196 95.4345 197.389 91.0674 195.207 90.2708L194.02 87.8849Z" fill="white"/>
<path d="M210.814 91.4308C212.473 88.9514 213.207 86.1929 214.635 83.9334C214.886 85.4753 215.117 86.2515 214.769 87.7709L214.674 88.2056C214.272 89.9784 212.788 93.4048 212.037 95.1955C211.672 95.3051 211.11 95.4465 210.789 95.61C210.5 94.3779 210.194 93.1476 209.877 91.9185L210.814 91.4308Z" fill="white"/>
<path d="M209.877 91.9183L210.814 91.4306C211.201 92.6917 211.609 93.9482 212.038 95.1954C211.672 95.3049 211.111 95.4463 210.789 95.6098C210.5 94.3778 210.195 93.1474 209.877 91.9183Z" fill="#412820"/>
<path d="M208.918 80.0032C210.523 80.746 212.18 81.712 213.734 82.5765C212.746 85.3263 211.297 88.1687 210.014 90.8097C207.5 90.1605 204.992 89.4963 202.484 88.8197C200.044 88.2531 196.892 87.2792 194.421 86.5966C198.749 84.9329 204.674 82.0253 208.918 80.0032Z" fill="#F7BDC0"/>
<path d="M127.98 43.6383C128.384 43.5515 128.583 43.5649 128.996 43.5463C130.472 44.4502 132.677 48.7515 133.578 50.3687C133.092 53.4405 130.763 59.8256 129.642 62.8848C129.356 63.6665 128.954 63.9976 128.189 64.273C127.326 64.2368 127.07 63.9677 126.349 63.4897C123.674 60.9246 117.926 53.855 118.671 49.8255C119.004 48.0369 126.13 44.6475 127.98 43.6383Z" fill="#38211D"/>
<path d="M128.658 44.4594L130.049 46.9898C130.387 47.3529 130.681 47.6711 131.041 48.0125L131.073 48.1393L132.415 50.5408C131.748 53.4555 129.725 59.8583 128.517 62.6359C128.334 61.0784 128.004 59.3224 127.51 57.8379L127.828 56.8616L126.913 56.3926C125.55 56.2916 120.502 51.1455 119.255 49.9717C121.925 48.1299 125.749 46.0967 128.658 44.4594Z" fill="#F7BDC0"/>
<path d="M127.824 56.8609C128.674 55.9698 130.125 49.9894 131.069 48.1385L132.411 50.54C131.743 53.4548 129.721 59.8575 128.512 62.6351C128.329 61.0776 128 59.3217 127.506 57.8372L127.824 56.8609Z" fill="white"/>
<path d="M130.049 46.9886C130.386 47.3517 130.681 47.6699 131.04 48.0113L131.073 48.1381C130.128 49.989 128.678 55.9694 127.827 56.8604L126.913 56.3914C127.826 53.9659 129.617 49.3909 130.049 46.9886Z" fill="#412820"/>
<path d="M119.807 52.1458C121.386 53.4274 124.996 57.4006 126.385 57.7312C126.985 57.3858 126.672 57.4121 127.33 57.5564L127.509 57.8381C128.003 59.3226 128.332 61.0785 128.515 62.636L128.582 62.9831C127.831 63.2311 128.225 63.1802 127.351 62.9958C124.407 60.069 121.634 55.873 119.807 52.1458Z" fill="white"/>
<path d="M126.386 57.7301C126.985 57.3847 126.672 57.4111 127.33 57.5554L127.509 57.837C128.003 59.3216 128.333 61.0775 128.516 62.635L128.582 62.9821C127.832 63.2301 128.225 63.1792 127.351 62.9948C127.15 61.5224 126.755 59.1053 126.386 57.7301Z" fill="#38211D"/>
<path d="M21.5615 140.167L28.1383 139.777C29.4606 140.582 29.8345 140.87 30.9979 141.859C30.6 143.729 30.2268 145.603 29.8784 147.482C29.2175 147.772 28.3085 148.084 27.6136 148.351L21.9418 150.205C20.6078 149.139 20.1159 148.546 19.0657 147.233C19.6849 145.098 20.6363 142.158 21.5615 140.167Z" fill="#38211D"/>
<path d="M22.228 141.169C23.8301 141.106 25.6982 140.908 27.318 140.78C26.6876 142.585 26.7636 143.778 24.9116 144.644L20.5101 146.398C20.8575 144.992 21.7412 142.613 22.228 141.169Z" fill="#F7BDC0"/>
<path d="M25.7945 145.547L26.1322 145.45C26.826 145.609 27.6416 146.521 28.2068 147.045L23.0127 148.769L22.4849 148.933C21.7365 148.763 21.1568 148.022 20.5865 147.447L25.7945 145.547Z" fill="white"/>
<path d="M28.3994 141.257C29.1179 141.661 29.1058 141.614 29.6095 142.251C29.8195 143.495 29.283 144.929 28.9549 146.235C28.3468 145.769 27.7659 145.138 27.217 144.583L28.3994 141.257Z" fill="white"/>
<path d="M73.8556 166.677C75.0038 166.787 76.3511 166.849 77.5181 166.929C78.2882 168.018 78.8539 169.054 79.5091 170.208C78.1695 171.968 77.3725 173.831 75.5081 174.259C70.8339 174.167 70.1913 175.317 69.4778 170.313C70.4127 169.364 72.7342 167.584 73.8556 166.677Z" fill="#38211D"/>
<path d="M71.8884 169.922C73.1674 168.333 74.1425 167.616 76.177 167.939C76.7577 168.544 76.7004 168.579 77.5025 168.751C78.6087 170.477 77.6654 171.15 76.4497 172.496L75.3447 172.84C74.5515 173.362 71.5787 173.325 70.8213 172.194C70.8278 171.411 70.7387 171.684 71.0608 171.02C71.3642 170.679 71.6174 170.296 71.8884 169.922Z" fill="#412820"/>
<path d="M71.0587 171.02C72.2949 170.991 73.8115 170.778 74.8386 171.28C75.2369 171.933 75.2093 172.093 75.3426 172.841C74.5494 173.362 71.5766 173.325 70.8192 172.194C70.8257 171.411 70.7366 171.685 71.0587 171.02Z" fill="white"/>
<path d="M71.8914 169.921C73.1704 168.333 74.1456 167.615 76.18 167.939C75.6128 169.985 73.6595 169.963 71.8914 169.921Z" fill="#FAE2E3"/>
<path d="M77.5034 168.751C78.6095 170.477 77.6663 171.15 76.4505 172.497C75.8326 170.357 76.0159 170.417 77.5034 168.751Z" fill="white"/>
<path d="M62.4732 89.2908C64.2566 89.8721 68.572 92.5632 68.3108 94.7056C67.5557 95.5832 66.0821 96.2486 65.0181 96.8315C63.2929 97.872 60.7144 98.5438 60.1595 95.7981C59.7405 93.7288 61.2964 90.9778 62.4732 89.2908Z" fill="#38211D"/>
<path d="M62.8747 90.4669C63.819 91.137 64.7043 91.8961 65.597 92.6326L66.7865 93.422C67.2006 95.2002 64.4194 96.1037 63.0104 96.4444C62.683 96.5234 61.9766 96.0694 61.6364 95.8995L61.3708 95.8921C60.8193 95.3352 60.9813 95.6664 60.9 94.8557C61.4655 93.3485 62.1799 91.921 62.8747 90.4669Z" fill="#412820"/>
<path d="M62.8754 90.4684C63.8197 91.1385 64.705 91.8976 65.5977 92.6341C64.4339 93.2879 62.1734 94.6348 60.9007 94.8572C61.4662 93.35 62.1806 91.9225 62.8754 90.4684Z" fill="#F7BDC0"/>
<path d="M61.6342 95.8995C62.3726 95.4367 65.6948 93.9687 66.7843 93.422C67.1985 95.2003 64.4172 96.1038 63.0082 96.4444C62.6808 96.5234 61.9744 96.0695 61.6342 95.8995Z" fill="white"/>
</g>
<defs>
<filter id="filter0_d_608_2252" x="12.7012" y="11.5423" width="231.947" height="174.729" filterUnits="userSpaceOnUse" color-interpolation-filters="sRGB">
<feFlood flood-opacity="0" result="BackgroundImageFix"/>
<feColorMatrix in="SourceAlpha" type="matrix" values="0 0 0 0 0 0 0 0 0 0 0 0 0 0 0 0 0 0 127 0" result="hardAlpha"/>
<feOffset dx="2" dy="4"/>
<feGaussianBlur stdDeviation="2"/>
<feComposite in2="hardAlpha" operator="out"/>
<feColorMatrix type="matrix" values="0 0 0 0 0 0 0 0 0 0 0 0 0 0 0 0 0 0 0.15 0"/>
<feBlend mode="normal" in2="BackgroundImageFix" result="effect1_dropShadow_608_2252"/>
<feBlend mode="normal" in="SourceGraphic" in2="effect1_dropShadow_608_2252" result="shape"/>
</filter>
</defs>
</svg>
