<svg width="227" height="188" viewBox="0 0 227 188" fill="none" xmlns="http://www.w3.org/2000/svg">
<g filter="url(#filter0_d_608_2253)">
<path d="M28.9142 71.3192C30.5147 66.9344 31.9669 62.8165 34.1915 58.6908C57.5863 15.3002 115.008 4.47474 158.743 18.7533C166.079 10.4691 173.807 5.44186 185.161 4.64824C190.11 4.30217 195.18 5.19521 195.194 11.3056C195.185 15.5458 192.792 19.2498 191.858 23.2977C190.601 28.5489 190.238 33.6648 190.098 39.02C196.383 46.6757 201.544 54.3828 204.618 63.898C206.526 65.0558 208.265 66.0878 209.824 67.7189C218.851 77.1628 217.945 94.7786 207.103 102.544C206.055 103.296 204.823 103.962 203.7 104.596C201.712 110.852 198.529 116.406 194.867 121.803C193.954 123.148 191.048 126.102 190.694 127.366C188.593 134.849 189.356 144.489 187.533 151.737C186.273 156.747 172.468 159.013 168.175 157.8C164.733 156.977 162.889 151.986 160.932 149.293C159.872 154.603 160.84 164.26 156.094 167.214C153.486 168.841 146.323 170.551 143.229 170.411C142.524 170.455 141.818 170.464 141.112 170.435C134.499 170.192 132.557 164.236 128.797 160.071C128.18 159.387 127.828 159.587 126.998 159.651C123.893 160.281 120.701 160.594 117.551 160.963C116.92 162.71 116.176 164.643 114.164 165.403C109.704 167.092 101.576 168.252 97.0098 166.667C94.0239 165.63 94.1037 160.803 91.6067 159.843C90.8849 160.164 91.2023 159.93 90.8742 160.752C89.426 164.384 88.8186 170.771 84.7718 172.457C80.416 174.272 72.6151 174.882 68.0486 173.299C66.829 172.877 65.9267 172.267 65.1997 171.237C63.1253 168.299 61.695 164.39 60.173 161.105C57.8293 156.047 55.3778 150.999 52.534 146.217C50.0469 142.032 46.5903 139.186 43.5021 135.605C38.8913 130.26 34.9124 123.833 32.1097 117.37C26.9203 105.211 25.2561 91.8355 27.3072 78.7739C23.8097 78.3846 22.645 78.212 19.5087 76.3462C15.8248 77.3117 13.9589 77.2921 10.1211 75.53C7.70599 74.4211 2.94492 68.427 7.92743 67.3242C9.02158 67.0823 11.6248 69.9455 12.6026 70.4444C13.383 70.8754 14.3973 71.0783 15.2471 71.2708C14.5498 69.9236 14.1532 69.0352 13.6345 67.6219C11.3842 61.4902 16.5858 54.0528 23.4183 56.5089C25.3126 57.1976 26.8456 58.6274 27.6645 60.4694C29.4844 64.4825 27.8302 68.6537 25.5303 72.0257L28.9142 71.3192Z" fill="#2E1814"/>
<path d="M27.5865 90.0142C27.1256 62.0172 45.9361 37.8884 70.064 25.6137C92.3918 14.2548 118.4 11.5023 142.97 15.7057C148.446 16.6425 153.942 18.3114 159.213 19.9805C160.753 18.194 162.571 15.9963 164.442 14.5696C166.208 15.4187 168.316 13.4064 170.243 12.4437C175.464 9.80174 181.099 7.78711 186.985 7.55761C189.225 7.47017 190.866 8.35654 192.596 8.47826L193.166 7.96674L193.731 8.98274C195.29 13.9249 191.449 19.157 190.526 24.0725C189.788 27.999 188.992 33.8248 189.198 37.8003C189.015 38.3863 188.649 39.0001 189.114 39.5226C195.587 46.793 199.798 54.2871 203.352 63.3211C193.685 60.8827 180.917 60.4885 174.223 69.2951C172.548 70.888 170.494 77.2381 174.45 77.4869C177.528 77.6805 180.188 72.6287 182.725 72.4427C177.592 83.0649 178.638 95.9261 188.625 103.28C193.96 106.193 196.345 106.321 202.279 105.239C202.032 106.043 201.325 108.407 200.842 108.959C197.749 116.451 191.88 124.52 186.206 130.231L185.829 129.786C185.252 129.801 184.73 129.965 184.25 130.27C178.904 133.674 173.389 136.664 167.494 139.016C166.731 139.319 165.194 140.027 164.411 140.102L163.648 139.686C160.491 141.144 158.773 154.52 158.778 158.105C158.788 165.913 154.757 167.662 147.636 168.77C145.652 168.007 142.887 167.675 141.232 166.384C132.591 159.634 127.97 146.25 115.429 145.379C112.866 145.201 109.877 145.325 107.206 145.286C104.28 145.233 101.358 145.074 98.4433 144.807C68.6497 141.882 41.8582 127.943 30.8425 98.2924C29.8924 95.7362 28.9982 92.2831 27.5865 90.0142Z" fill="#F7BDC0"/>
<path d="M190.227 9.25005C191.536 8.59103 192.759 9.55947 193.733 8.98168C195.292 13.9239 191.452 19.1559 190.528 24.0714C189.791 27.9979 188.994 33.8238 189.2 37.7993C186.604 35.9001 184.548 33.5879 181.952 31.6354C179.433 29.7411 176.218 28.1384 173.848 26.1677C173.132 25.4312 172.963 25.0132 173.468 24.0026C177.442 16.0567 182.153 12.4649 190.227 9.25005Z" fill="#ED9AA0"/>
<path d="M190.228 9.25116L190.834 9.63191L190.934 10.1517C190.154 10.9205 188.264 11.0878 186.86 11.7805C180.393 14.9691 176.771 19.8595 173.849 26.1688C173.134 25.4323 172.964 25.0143 173.47 24.0037C177.443 16.0578 182.154 12.466 190.228 9.25116Z" fill="#2E1814"/>
<path d="M188.625 103.281C193.961 106.193 196.345 106.321 202.279 105.239C202.032 106.043 201.325 108.407 200.842 108.959C199.514 109.219 198.385 109.963 197.121 110.536C193.553 112.172 189.931 112.384 186.096 111.585C183.974 111.144 177.569 109.033 178.538 106.062C179.689 102.535 186.306 104.818 188.625 103.281Z" fill="#ED9AA0"/>
<path d="M128.191 18.5821C117.737 17.8383 110.772 32.9902 110.208 41.814C110.03 44.6094 110.209 47.416 110.74 50.1662C110.953 51.3084 111.729 53.9163 111.679 54.775L111.392 54.9273C109.978 54.0372 109.695 50.3681 109.408 48.717C107.404 37.2139 113.266 21.5069 125.022 17.5606C129.982 15.8958 135.814 21.3479 139.01 24.4887C140.335 25.7914 145.948 29.8985 146.34 31.1539C146.082 31.3824 146.063 31.4536 145.763 31.5823L145.05 32.5605C144.106 33.8731 139.323 37.6488 137.695 39.2426C134.266 42.5988 132.228 45.3345 129.389 49.1399C129.071 49.1924 128.58 49.312 128.356 49.0216C123.368 42.548 122.389 28.6435 126.58 22.1094C127.081 21.6328 127.918 19.3284 128.191 18.5821Z" fill="#ED9AA0"/>
<path d="M128.191 18.5821C117.737 17.8383 110.772 32.9902 110.208 41.814C110.03 44.6094 110.209 47.416 110.74 50.1662C110.953 51.3084 111.729 53.9163 111.679 54.775L111.392 54.9273C109.978 54.0372 109.695 50.3681 109.408 48.717C107.404 37.2139 113.266 21.5069 125.022 17.5606C129.982 15.8958 135.814 21.3479 139.01 24.4887C140.335 25.7914 145.948 29.8985 146.34 31.1539C146.082 31.3824 146.063 31.4536 145.763 31.5823C144.404 30.4143 142.93 29.2201 141.528 28.0855C137.24 24.6146 133.618 20.1511 128.191 18.5821Z" fill="#341918"/>
<path d="M126.581 22.1098C126.953 22.4594 127.305 22.6211 127.227 22.95C126.719 25.089 125.697 27.1742 125.262 29.4076C124.282 34.4382 125.285 39.814 127.19 44.5065C127.871 46.1851 128.822 47.7319 129.39 49.1403C129.072 49.1928 128.581 49.3123 128.357 49.0219C123.369 42.5484 122.39 28.6439 126.581 22.1098Z" fill="#2E1814"/>
<path d="M96.9983 18.6122C99.459 18.1659 115.512 15.9238 116.405 17.6107C115.701 19.3427 114.354 20.8455 113.09 22.1983C105.434 21.8065 100.063 22.5972 92.5901 23.754C89.577 24.4226 86.6498 25.0773 83.6818 25.9233C80.8195 26.7393 77.8617 27.8466 74.9801 28.4882L74.6769 28.047C75.2056 24.7825 79.1355 23.0991 81.8551 22.2178C86.8907 20.5853 91.8053 19.5741 96.9983 18.6122Z" fill="#2E1814"/>
<path d="M94.8326 20.1257C99.2728 18.9775 110.508 18.1807 115.037 18.2516C114.264 19.08 113.509 20.1095 112.806 21.0123C108.13 20.9609 104.441 21.1811 99.7774 21.5609C92.5582 22.5252 88.0765 23.5882 81.1318 25.519L79.6109 24.2093C84.3991 22.3887 89.8399 21.183 94.8326 20.1257Z" fill="#ED9AA0"/>
<path d="M56.7609 41.135C65.2688 39.0771 59.462 47.3197 56.1735 49.3716C54.9538 50.1327 52.4492 53.1716 50.7056 54.4327C49.3899 54.8226 48.9274 54.9859 47.4725 54.5882C45.537 54.059 46.2888 51.2885 46.8915 50.0481C48.8137 46.0917 52.7131 42.7734 56.7609 41.135Z" fill="#FAE2E3"/>
<path d="M154.907 60.2182C160.369 59.0592 162.567 66.7132 158.981 70.2043C154.269 71.5053 151.462 63.9294 154.907 60.2182Z" fill="#2E1814"/>
<path d="M188.78 50.0664C193.089 50.115 194.907 55.5799 192.115 58.615C188.127 59.1007 186.399 53.1582 188.78 50.0664Z" fill="#38211D"/>
<path d="M65.6166 36.2059C69.4402 35.5878 70.164 38.1424 67.7253 40.7459C63.9398 41.4761 62.7854 38.7557 65.6166 36.2059Z" fill="#FAE2E3"/>
<path d="M27.5883 90.0137C29 92.2826 29.8942 95.7357 30.8444 98.2919C41.86 127.943 68.6515 141.882 98.4451 144.806C101.359 145.074 104.282 145.233 107.208 145.285C109.879 145.324 112.868 145.2 115.431 145.378C127.972 146.249 132.592 159.633 141.234 166.383C142.889 167.675 145.654 168.006 147.638 168.769L147.206 169.06C145.64 169.75 144.216 169.308 143.527 170.25C143.427 170.303 143.327 170.355 143.227 170.41C142.522 170.455 141.816 170.463 141.111 170.435C134.497 170.191 132.555 164.236 128.796 160.071C128.178 159.387 127.827 159.586 126.996 159.651C127.364 159.321 127.194 159.519 127.484 159.04L126.816 158.853C125.819 158.81 124.474 159.009 123.456 159.16C116.477 160.199 109.714 160.389 102.658 159.986C97.753 159.687 92.8716 159.084 88.0416 158.18C86.4579 157.871 82.2158 156.401 80.934 156.746L80.81 157.156C81.6572 158.133 88.4432 159.374 90.0668 159.731C89.3424 162.076 87.664 168.221 86.1418 169.91C83.1521 173.596 70.2386 174.176 66.8377 171.373C65.0383 169.888 61.1278 160.509 59.8456 157.843C58.2234 154.434 56.5048 151.07 54.6925 147.758C50.7828 140.739 48.5324 139.937 43.7726 134.213C32.9879 121.241 27.9061 106.733 27.5883 90.0137Z" fill="#ED9AA0"/>
<path d="M126.813 158.854L127.305 158.475C127.19 156.38 121.09 151.594 121.131 149.927C123.617 149.521 133.212 164.906 135.73 167.121C136.77 168.039 138.02 168.683 139.37 169.001C142.536 169.769 144.359 169.12 147.203 169.06C145.637 169.751 144.212 169.308 143.524 170.251C143.424 170.303 143.324 170.356 143.224 170.411C142.519 170.456 141.813 170.464 141.108 170.436C134.494 170.192 132.552 164.236 128.793 160.071C128.175 159.388 127.824 159.587 126.993 159.651C127.361 159.321 127.191 159.52 127.481 159.04L126.813 158.854Z" fill="#38201F"/>
<path d="M195.285 63.0571C201.42 63.6903 206.075 64.6129 210.152 69.7154C217.353 78.6819 216.371 93.5352 207.349 100.933C200.221 106.783 190.718 105.766 185.142 98.4036C177.375 88.1522 180.068 70.4183 192.335 64.8503C192.701 64.6843 192.637 64.6992 192.928 64.4269C194.086 64.4016 194.569 63.8625 195.285 63.0571Z" fill="#F7BDC0"/>
<path d="M190.937 78.7033C195.796 77.9654 197.05 89.5629 194.439 93.0673C189.942 93.3594 189.286 85.0367 189.611 81.8279C189.759 80.3638 190.017 79.8185 190.937 78.7033Z" fill="#2E1814"/>
<path d="M191.317 79.7202L191.974 79.789C195.122 81.7415 195.19 88.9668 193.814 92.0911C190.448 90.705 189.975 82.8204 191.317 79.7202Z" fill="#A6565C"/>
<path d="M204.739 75.0718C210.008 73.7092 210.561 85.2099 208.734 88.6831C208.5 88.7787 208.299 88.8746 208.043 88.9198C207.527 89.0206 206.993 88.9153 206.554 88.6243C203.584 86.6908 202.96 78.1284 204.739 75.0718Z" fill="#2E1814"/>
<path d="M205.634 75.8296C209.05 77.0315 209.001 85.0348 207.835 87.9602C204.505 87.0858 204.256 78.6071 205.634 75.8296Z" fill="#A6565C"/>
<path d="M174.228 69.2936C174.367 69.342 175.15 69.5307 175.153 69.5283C176.402 68.6744 179.083 66.1178 180.247 65.449C184.852 62.8043 190.15 62.6684 195.286 63.0574C194.57 63.8629 194.088 64.4019 192.929 64.4273C189.138 63.452 184.42 69.5516 182.73 72.4413C180.192 72.6273 177.533 77.679 174.455 77.4854C170.499 77.2367 172.553 70.8866 174.228 69.2936Z" fill="#FAE2E3"/>
<path d="M164.412 140.1C165.196 140.025 166.733 139.317 167.495 139.014C173.39 136.662 178.905 133.672 184.252 130.268C184.731 129.963 185.253 129.799 185.83 129.784L186.207 130.229C179.869 137.335 169.318 144.036 161.012 148.467C161.702 145.845 162.679 142.236 164.412 140.1Z" fill="#ED9AA0"/>
<path d="M164.451 14.5695C167.46 11.5945 172.024 8.9134 176.017 7.56598C180.667 5.99686 189.444 3.72645 193.175 7.96662L192.605 8.47814C190.875 8.35642 189.233 7.47005 186.993 7.55749C181.108 7.78698 175.472 9.80161 170.251 12.4436C168.324 13.4063 166.216 15.4185 164.451 14.5695Z" fill="#FAE2E3"/>
<path d="M189.328 128.456C189.12 130.923 188.534 134.273 188.158 136.8C187.823 140.175 187.574 143.688 187.373 147.069C187.071 152.165 185.409 153.796 180.879 155.444C177.59 156.395 172.148 157.782 168.766 156.81C165.566 155.894 163.853 151.964 162.296 149.159C174.071 142.085 179.599 139.027 189.328 128.456Z" fill="#ED9AA0"/>
<path d="M180.877 155.443C180.062 155.52 179.61 155.614 178.952 155.026C177.813 154.003 177.156 152.546 177.141 151.015C177.093 145.963 183.293 140.328 186.745 137.301C187.274 136.837 187.006 136.896 187.726 136.509L188.157 136.799C187.822 140.174 187.573 143.688 187.372 147.069C187.07 152.164 185.407 153.795 180.877 155.443Z" fill="#F7BDC0"/>
<path d="M20.8108 74.6047C16.7212 76.435 11.8331 76.3164 8.44545 72.9681C7.64483 72.1768 6.80299 70.7854 6.8363 69.6293C7.24548 68.7124 6.94929 69.0731 7.73373 68.4855C9.55443 68.4573 10.2999 70.7459 12.0058 71.5944C16.9894 74.0735 24.9599 68.4132 23.2754 62.8524C22.5911 60.5926 20.1283 60.0125 18.5612 62.3949C16.6447 65.3082 19.7794 67.5974 18.8181 69.8033C18.3672 70.0974 17.5805 70.6642 17.0818 70.691C15.4106 70.6735 14.5766 66.9337 14.3617 65.6452C13.3446 59.5494 19.4306 54.6639 24.8096 58.4166C27.571 60.343 27.5702 65.2291 26.4129 68.0624C25.7179 69.7643 25.1005 70.6849 23.8877 72.1297C22.7516 73.1381 22.0481 73.7174 20.8108 74.6047Z" fill="#F7BDC0"/>
<path d="M93.9297 160.247C102.224 161.31 108.191 161.488 116.429 161.038C115.949 162.155 115.722 162.49 115.028 163.501C111.367 166.13 102.016 167.123 97.6351 165.689C95.6269 165.031 94.6229 162.043 93.9297 160.247Z" fill="#ED9AA0"/>
<path d="M23.8877 72.1273L24.662 72.9688C26.1787 73.2209 27.2267 72.939 28.7264 72.5856C28.3318 74.1655 27.9397 75.8758 27.5066 77.4336C24.3268 77.2281 23.7138 77.0685 20.7958 75.782C20.6108 75.1694 20.6178 75.2147 20.8108 74.6022C22.0481 73.7149 22.7516 73.1357 23.8877 72.1273Z" fill="#ED9AA0"/>
<path d="M23.8877 72.1273L24.662 72.9688C23.2948 74.1382 22.4155 74.9692 20.7958 75.782C20.6108 75.1694 20.6178 75.2147 20.8108 74.6022C22.0481 73.7149 22.7516 73.1357 23.8877 72.1273Z" fill="#38211D"/>
<path d="M20.0212 62.1096C23.843 61.8613 22.3089 65.8841 21.0974 67.7208L20.6137 68.1002L20.1507 67.9563C18.8081 66.2426 18.7897 63.8919 20.0212 62.1096Z" fill="white"/>
</g>
<defs>
<filter id="filter0_d_608_2253" x="3.74219" y="4.58398" width="218.234" height="177.626" filterUnits="userSpaceOnUse" color-interpolation-filters="sRGB">
<feFlood flood-opacity="0" result="BackgroundImageFix"/>
<feColorMatrix in="SourceAlpha" type="matrix" values="0 0 0 0 0 0 0 0 0 0 0 0 0 0 0 0 0 0 127 0" result="hardAlpha"/>
<feOffset dx="2" dy="4"/>
<feGaussianBlur stdDeviation="2"/>
<feComposite in2="hardAlpha" operator="out"/>
<feColorMatrix type="matrix" values="0 0 0 0 0 0 0 0 0 0 0 0 0 0 0 0 0 0 0.15 0"/>
<feBlend mode="normal" in2="BackgroundImageFix" result="effect1_dropShadow_608_2253"/>
<feBlend mode="normal" in="SourceGraphic" in2="effect1_dropShadow_608_2253" result="shape"/>
</filter>
</defs>
</svg>
