<?xml version="1.0" encoding="UTF-8"?>
<svg id="Layer_1" data-name="Layer 1" xmlns="http://www.w3.org/2000/svg" viewBox="0 0 300 300">
  <defs>
    <style>
      .cls-1 {
        fill: #05dd7b;
      }

      .cls-2 {
        fill: #6196ff;
      }
    </style>
  </defs>
  <path class="cls-1" d="M208.76,62.75c24.69-7.68,69.68-3.91,63.08,31.87-3.7,20.07-33.56,40.06-52.48,44.73-.43,1.81.27,1.88,1.25,2.86,13.93,13.84,25.33,25.05,23.34,47.06-4.44,49.04-66.33,67.51-105.89,79.08-32.91,9.62-66.61,16.33-100.11,23.63-9.87.51-13.68-11.04-3.58-15.38,14.53-6.25,46.37-9.84,63.64-14.12,32.65-8.08,99.05-24.4,119.96-50.88,14.53-18.4,13.11-42.64-6.86-55.76,3.98,54.52-69.95,84.18-101.93,37.72-17.12,20.93-73.39,41.69-89.6,11.82-12.5-23.03,14.4-52.9,32.46-64.85-29.48-11.77-43.95-42.44-15.33-65.42,19.96-16.02,52.27-19.03,76.55-13.55,6.8-14.84,18.71-29.75,31.96-39.35,40.72-29.52,78.61-11.63,63.53,40.54ZM148.45,85.46c-17.22,1.11-40.79,16.81-41.11,35.62-.09,5.2,1.69,9.86,5.57,13.36,17.09,15.38,52.29-2.73,58.71-22.21,5.57-16.9-6.77-27.83-23.18-26.77Z"/>
  <path class="cls-2" d="M269.6,281.49c-14.73,16.24-60.23-.47-63.1-21.49-3.14-22.99,26.81-21.4,41.55-15.63,12.82,5.02,34.97,22.33,21.56,37.12Z"/>
</svg>